<?xml version="1.0" encoding="UTF-8"?>
<!-- Generator: visioncortex VTracer 0.6.1 -->
<svg version="1.1" xmlns="http://www.w3.org/2000/svg" width="1280" height="931">
<path d="M0 0 C1.95292969 -0.01160156 1.95292969 -0.01160156 3.9453125 -0.0234375 C11.21319674 -0.00875491 17.95406785 0.4420967 25 2.25 C25.74507812 2.43103271 26.49015625 2.61206543 27.2578125 2.79858398 C37.97167207 5.56239212 49.6444089 14.1354987 57 22.25 C57 22.91 57 23.57 57 24.25 C57.99 24.58 58.98 24.91 60 25.25 C61.09765625 26.80859375 61.09765625 26.80859375 62.0625 28.6875 C63.26019398 30.99149765 64.13152817 32.38152817 66 34.25 C71.26553624 42.4697975 74.14919791 50.44851112 74.7890625 60.18359375 C74.88302486 62.31110892 74.88302486 62.31110892 76 64.25 C76.07181821 66.96760108 76.09299506 69.65859388 76.0625 72.375 C76.05798828 73.12910156 76.05347656 73.88320312 76.04882812 74.66015625 C76.03703499 76.52347127 76.01909942 78.38674555 76 80.25 C75.34 80.25 74.68 80.25 74 80.25 C74 82.89 74 85.53 74 88.25 C73.67 87.59 73.34 86.93 73 86.25 C71.515 86.745 71.515 86.745 70 87.25 C69.04973944 85.34947888 68.09990567 83.44874305 67.15234375 81.546875 C66.40289807 80.05306462 65.64548974 78.56321357 64.87890625 77.078125 C64.52699219 76.39234375 64.17507813 75.7065625 63.8125 75 C63.32716797 74.06414062 63.32716797 74.06414062 62.83203125 73.109375 C62 71.25 62 71.25 61.51171875 69.140625 C61.10766995 67.02579755 61.10766995 67.02579755 59 65.25 C58.08790609 63.79341367 57.21650753 62.31097393 56.375 60.8125 C55.92898438 60.03003906 55.48296875 59.24757812 55.0234375 58.44140625 C54 56.25 54 56.25 54 53.25 C53.01 52.92 52.02 52.59 51 52.25 C49.00603743 49.58916031 47 46.63757675 47 43.25 C46.34 43.25 45.68 43.25 45 43.25 C44.08189975 41.85584776 43.16810679 40.45865039 42.27734375 39.046875 C39.61667258 35.30403483 36.14016317 31.32008159 32 29.25 C32 28.59 32 27.93 32 27.25 C31.46375 27.146875 30.9275 27.04375 30.375 26.9375 C28 26.25 28 26.25 25.25 24.75 C21.35043941 22.9502028 18.259715 22.61721681 14 22.25 C13.67 21.26 13.34 20.27 13 19.25 C12.24589844 19.49943359 12.24589844 19.49943359 11.4765625 19.75390625 C7.45849797 20.55878669 3.39062316 20.25048822 -0.6875 20.12304688 C-2.45858902 20.09329538 -4.23069896 20.16505698 -6 20.25 C-6.66 20.91 -7.32 21.57 -8 22.25 C-11.125 21.875 -11.125 21.875 -14 21.25 C-14.33 21.91 -14.66 22.57 -15 23.25 C-15.66 23.1675 -16.32 23.085 -17 23 C-20.62555299 23.30212942 -22.97072596 24.56095825 -26.1328125 26.27734375 C-28 27.25 -28 27.25 -31 28.25 C-31.66 27.92 -32.32 27.59 -33 27.25 C-33 27.91 -33 28.57 -33 29.25 C-33.66 29.25 -34.32 29.25 -35 29.25 C-35.33 30.24 -35.66 31.23 -36 32.25 C-37.43013598 33.18125134 -38.86237104 34.10955776 -40.30859375 35.015625 C-44.61824775 38.16077665 -47.76803329 42.44916594 -50 47.25 C-50.66 47.25 -51.32 47.25 -52 47.25 C-52.33 48.9 -52.66 50.55 -53 52.25 C-53.66 52.25 -54.32 52.25 -55 52.25 C-54.938125 53.425625 -54.938125 53.425625 -54.875 54.625 C-55 57.25 -55 57.25 -57 59.25 C-57.97808182 62.8293796 -58.10715778 66.18676119 -58.0625 69.8828125 C-58.05476563 70.93597656 -58.04703125 71.98914063 -58.0390625 73.07421875 C-58.02617188 74.16347656 -58.01328125 75.25273437 -58 76.375 C-57.97450974 78.54422111 -57.9534704 80.71350041 -57.9375 82.8828125 C-57.92589844 83.84074707 -57.91429687 84.79868164 -57.90234375 85.78564453 C-58 88.25 -58 88.25 -59 91.25 C-58.34 91.58 -57.68 91.91 -57 92.25 C-57.061875 93.1575 -57.12375 94.065 -57.1875 95 C-56.98027105 98.59196854 -56.33612877 99.63353578 -54 102.25 C-53.67 102.91 -53.34 103.57 -53 104.25 C-53.33 104.91 -53.66 105.57 -54 106.25 C-53.34 106.25 -52.68 106.25 -52 106.25 C-52 107.57 -52 108.89 -52 110.25 C-51.34 110.58 -50.68 110.91 -50 111.25 C-48.79798734 112.59183011 -47.59904666 113.93665145 -46.42211914 115.30053711 C-35.84781575 127.47233183 -21.02033116 134.91370171 -5 137.25 C4.56487342 138.84018987 4.56487342 138.84018987 7 140.25 C8.1051862 142.86277353 8.54210624 145.4640199 9 148.25 C9.33 149.24 9.66 150.23 10 151.25 C10.08178114 152.95016844 10.10749501 154.65336297 10.09765625 156.35546875 C10.09443359 157.33837891 10.09121094 158.32128906 10.08789062 159.33398438 C10.07951172 160.35814453 10.07113281 161.38230469 10.0625 162.4375 C10.05798828 163.47326172 10.05347656 164.50902344 10.04882812 165.57617188 C10.0370401 168.13417266 10.02058515 170.69205733 10 173.25 C9.34 173.25 8.68 173.25 8 173.25 C8 176.22 8 179.19 8 182.25 C8.66 182.25 9.32 182.25 10 182.25 C10.08636719 182.91386719 10.17273438 183.57773437 10.26171875 184.26171875 C11.20777344 190.20710829 12.23715727 193.23918507 17 197.25 C17 197.91 17 198.57 17 199.25 C17.804375 199.53875 18.60875 199.8275 19.4375 200.125 C22 201.25 22 201.25 23 203.25 C24.86582318 204.12922928 26.76902062 204.93001921 28.6875 205.6875 C31.87584789 206.9688337 34.95151805 208.22474898 38 209.8125 C41.87199412 211.66783052 45.87549183 212.88486382 49.95703125 214.203125 C53.43881018 215.40096422 56.73970841 216.83838411 60.0625 218.41796875 C62.02268325 219.25974099 63.92011456 219.79038246 66 220.25 C66 220.91 66 221.57 66 222.25 C66.60328125 222.38277344 67.2065625 222.51554688 67.828125 222.65234375 C68.62734375 222.82894531 69.4265625 223.00554687 70.25 223.1875 C71.03890625 223.36152344 71.8278125 223.53554688 72.640625 223.71484375 C74.76878703 224.197556 76.88532842 224.71163178 79 225.25 C79 225.91 79 226.57 79 227.25 C79.94875 227.3325 80.8975 227.415 81.875 227.5 C85.9310223 228.08406721 89.43140742 229.49934415 93.1953125 231.078125 C96.27485719 232.36484284 99.38137985 233.56125538 102.5 234.75 C108.0209733 236.86648097 113.51583676 239.04023113 119 241.25 C121.49546923 242.2489712 123.99146188 243.24659547 126.48828125 244.2421875 C128.19689194 244.92775758 129.90253629 245.62075704 131.60546875 246.3203125 C136.35841296 248.26175718 141.03084278 249.95369812 146 251.25 C146 251.91 146 252.57 146 253.25 C147.03125 253.37375 148.0625 253.4975 149.125 253.625 C152.62116846 254.18889814 155.68397627 255.03682059 159 256.25 C159 256.91 159 257.57 159 258.25 C159.94875 258.3325 160.8975 258.415 161.875 258.5 C169.26847025 259.55833949 176.09415864 263.27043065 182.84375 266.3125 C185.55617733 267.49181623 188.31112772 268.51639935 191.08984375 269.52734375 C192.98969605 270.24610178 194.83343716 271.04607774 196.6875 271.875 C199.51899137 273.05033604 201.98483875 273.79315739 205 274.25 C205 274.91 205 275.57 205 276.25 C205.87140625 276.36730469 206.7428125 276.48460937 207.640625 276.60546875 C210.96362906 277.24302186 213.65633752 278.21215813 216.75 279.5625 C217.78898438 280.00851562 218.82796875 280.45453125 219.8984375 280.9140625 C220.92195312 281.35492188 221.94546875 281.79578125 223 282.25 C227.36193607 284.04609132 231.71142096 285.82047365 236.1875 287.3125 C238.8374365 288.19581217 241.33669378 289.27793598 243.890625 290.40234375 C246.51559609 291.45719324 249.18354555 292.31653441 251.875 293.1875 C256.30454919 294.63636628 260.54505313 296.2579788 264.76953125 298.22265625 C270.32330805 300.78070056 275.95157218 303.01812526 281.6875 305.125 C287.5969518 307.31728216 293.43492806 309.63328024 299.2421875 312.0859375 C301.98689351 313.2444678 304.73891822 314.38107765 307.5 315.5 C308.2734375 315.81453125 309.046875 316.1290625 309.84375 316.453125 C311.88071814 317.20591758 313.88412551 317.76911943 316 318.25 C316 318.91 316 319.57 316 320.25 C317.03125 320.37375 318.0625 320.4975 319.125 320.625 C322.62116846 321.18889814 325.68397627 322.03682059 329 323.25 C329 323.91 329 324.57 329 325.25 C329.7734375 325.42015625 330.546875 325.5903125 331.34375 325.765625 C337.04471005 327.092086 342.12127909 328.54811114 347.26953125 331.33984375 C351.83426177 333.74070653 357.05205858 334.8645764 362 336.25 C362 336.91 362 337.57 362 338.25 C362.78375 338.3325 363.5675 338.415 364.375 338.5 C368.12476083 339.27581259 371.29517773 340.47679406 374.81640625 341.9453125 C377.33481842 342.97739798 379.85782718 343.96543827 382.40234375 344.9296875 C383.18899414 345.2292334 383.97564453 345.5287793 384.78613281 345.83740234 C386.35298424 346.43285686 387.92128742 347.02450928 389.49121094 347.61181641 C394.28540156 349.44648813 398.60439064 351.59516839 403 354.25 C403 354.91 403 355.57 403 356.25 C403.71671875 356.35699219 404.4334375 356.46398437 405.171875 356.57421875 C408.26988071 357.31448807 410.51301863 358.44407539 413.25 360.0625 C414.12140625 360.56394531 414.9928125 361.06539063 415.890625 361.58203125 C418 363.25 418 363.25 418.82421875 365.27734375 C419.04528057 367.75814857 418.60127161 369.84491354 418 372.25 C417.34 372.25 416.68 372.25 416 372.25 C416.33 373.24 416.66 374.23 417 375.25 C412.97706387 376.85917445 410.00635479 375.44487774 406 374.25 C404.33378384 374.21125079 402.66605828 374.2049714 401 374.25 C398.9375 373.8125 398.9375 373.8125 397 373.25 C396.2575 373.064375 395.515 372.87875 394.75 372.6875 C394.1725 372.543125 393.595 372.39875 393 372.25 C393 371.59 393 370.93 393 370.25 C392.01 370.58 391.02 370.91 390 371.25 C385.81340654 370.89369417 383.06523352 370.19733993 380 367.25 C380 366.59 380 365.93 380 365.25 C379.01 365.58 378.02 365.91 377 366.25 C375.31791365 365.27616054 373.65261839 364.27304948 372 363.25 C369.30745009 362.54329272 369.30745009 362.54329272 367 362.25 C367 361.59 367 360.93 367 360.25 C366.4225 360.476875 365.845 360.70375 365.25 360.9375 C364.5075 361.040625 363.765 361.14375 363 361.25 C362.1028125 360.569375 362.1028125 360.569375 361.1875 359.875 C358.25901 357.69955029 355.5644071 357.72077075 352 357.25 C351.67 356.59 351.34 355.93 351 355.25 C349.34550895 354.86070799 347.67453799 354.541224 346 354.25 C343.66237777 353.59853151 341.32809543 352.93473395 339 352.25 C339 351.26 339 350.27 339 349.25 C338.01 349.58 337.02 349.91 336 350.25 C335.34 349.92 334.68 349.59 334 349.25 C334 348.59 334 347.93 334 347.25 C333.4225 347.476875 332.845 347.70375 332.25 347.9375 C330 348.25 330 348.25 328 346.875 C327.34 346.33875 326.68 345.8025 326 345.25 C324.67166017 344.89729306 323.33732842 344.56692523 322 344.25 C320.38633681 343.64994434 318.78249609 343.02304566 317.1875 342.375 C315.87265625 341.84326172 315.87265625 341.84326172 314.53125 341.30078125 C312.40190171 340.41683883 310.29351246 339.50004502 308.1875 338.5625 C305.17478621 337.18797999 305.17478621 337.18797999 302.5 336.8125 C300.04801015 336.26080228 298.57710257 335.51740789 296.4375 334.25 C293.68322463 332.64751251 292.03474472 331.75579079 289 331.25 C285.43407307 330.60996183 282.33984436 329.65625026 279 328.25 C278.01 327.92 277.02 327.59 276 327.25 C274.65909241 326.59870203 273.32407669 325.93486725 272 325.25 C272 324.59 272 323.93 272 323.25 C271.38125 323.45625 270.7625 323.6625 270.125 323.875 C269.42375 323.99875 268.7225 324.1225 268 324.25 C267.34 323.59 266.68 322.93 266 322.25 C265.175 322.085 264.35 321.92 263.5 321.75 C261 321.25 261 321.25 259 319.25 C258.01 318.92 257.02 318.59 256 318.25 C256 317.59 256 316.93 256 316.25 C255.4225 316.476875 254.845 316.70375 254.25 316.9375 C252 317.25 252 317.25 250.0625 315.875 C249.381875 315.33875 248.70125 314.8025 248 314.25 C245.68149993 313.63567131 245.68149993 313.63567131 243 313.25 C235.38630807 311.63630807 235.38630807 311.63630807 233 309.25 C228.51912916 306.91713011 224.02522544 304.96788935 219 304.25 C217.66457061 303.92516582 216.33038449 303.5949145 215 303.25 C215 302.26 215 301.27 215 300.25 C213.35 300.25 211.7 300.25 210 300.25 C210 299.59 210 298.93 210 298.25 C209.236875 298.476875 208.47375 298.70375 207.6875 298.9375 C206.800625 299.040625 205.91375 299.14375 205 299.25 C203.4375 297.8125 203.4375 297.8125 202 296.25 C200.68 296.25 199.36 296.25 198 296.25 C198 295.59 198 294.93 198 294.25 C197.37351562 294.20101563 196.74703125 294.15203125 196.1015625 294.1015625 C195.28429687 294.02679688 194.46703125 293.95203125 193.625 293.875 C192.81289063 293.80539062 192.00078125 293.73578125 191.1640625 293.6640625 C189 293.25 189 293.25 187 291.25 C185.35008418 290.54289322 183.68437744 289.87056011 182 289.25 C182 288.59 182 287.93 182 287.25 C181.21625 287.45625 180.4325 287.6625 179.625 287.875 C178.75875 287.99875 177.8925 288.1225 177 288.25 C176.34 287.59 175.68 286.93 175 286.25 C172.357512 284.58621126 170.53391928 284.185713 167.375 283.75 C164 283.25 164 283.25 162 281.25 C160.01178687 280.85235737 158.01055661 280.51224651 156 280.25 C156 279.26 156 278.27 156 277.25 C155.4225 277.476875 154.845 277.70375 154.25 277.9375 C152 278.25 152 278.25 150.15625 276.86328125 C147.83271076 275.12483613 146.03703394 274.49557596 143.25 273.75 C137.89930136 272.24264979 132.65009172 270.61085791 127.6875 268.0625 C125.86165175 267.03309219 125.86165175 267.03309219 123 267.25 C123 266.26 123 265.27 123 264.25 C122.2575 264.476875 121.515 264.70375 120.75 264.9375 C118 265.25 118 265.25 116 263.875 C115.34 263.33875 114.68 262.8025 114 262.25 C112.34178227 261.87690101 110.67422986 261.54299023 109 261.25 C106.43129043 260.11674578 104.35355256 258.81903504 102 257.25 C99.37468476 257.08286431 99.37468476 257.08286431 97 257.25 C97 256.26 97 255.27 97 254.25 C96.4225 254.435625 95.845 254.62125 95.25 254.8125 C92.79307475 255.29023546 91.35602466 255.00729364 89 254.25 C89 253.26 89 252.27 89 251.25 C88.154375 251.146875 87.30875 251.04375 86.4375 250.9375 C82.65850056 250.18170011 79.52472041 248.78805981 76 247.25 C75.21625 247.105625 74.4325 246.96125 73.625 246.8125 C69.49549194 245.92760542 65.82061931 244.01588762 62 242.25 C57.41932984 240.12686112 57.41932984 240.12686112 52.5625 238.8125 C49.35954074 238.10941138 46.81752117 236.67800544 43.92578125 235.1640625 C41.65779914 234.08757606 39.46490124 233.6725545 37 233.25 C36.01 232.59 35.02 231.93 34 231.25 C31.37468476 231.08286431 31.37468476 231.08286431 29 231.25 C29 230.59 29 229.93 29 229.25 C27.35 228.92 25.7 228.59 24 228.25 C24 227.59 24 226.93 24 226.25 C23.01 226.45625 22.02 226.6625 21 226.875 C17.91680795 227.32570299 16.57006941 227.13482337 13.3984375 226.28515625 C8.46248105 224.96478218 3.70647293 224.99161308 -1.375 225.0625 C-2.27605469 225.06314453 -3.17710937 225.06378906 -4.10546875 225.06445312 C-8.70758134 224.93733176 -8.70758134 224.93733176 -13 226.25 C-13.99 225.92 -14.98 225.59 -16 225.25 C-16.33 225.91 -16.66 226.57 -17 227.25 C-19.0625 227.875 -19.0625 227.875 -21 228.25 C-21 227.59 -21 226.93 -21 226.25 C-25.64708165 228.19840593 -25.64708165 228.19840593 -30.1875 230.375 C-32.13030026 231.31290358 -33.87174115 231.89529019 -36 232.25 C-36.66 231.92 -37.32 231.59 -38 231.25 C-38 231.91 -38 232.57 -38 233.25 C-38.9075 233.53875 -39.815 233.8275 -40.75 234.125 C-43.86150021 235.12318295 -43.86150021 235.12318295 -46.125 236.3125 C-48 237.25 -48 237.25 -49.8125 237.6875 C-53.02557302 238.51371878 -55.95642479 239.93811413 -59 241.25 C-60.0725 241.600625 -61.145 241.95125 -62.25 242.3125 C-65.16587399 243.17529767 -65.16587399 243.17529767 -68 245.25 C-68.66 245.58 -69.32 245.91 -70 246.25 C-70 245.59 -70 244.93 -70 244.25 C-70.721875 244.70375 -71.44375 245.1575 -72.1875 245.625 C-75.70982828 247.66012301 -79.20181007 248.98936655 -83.0625 250.25 C-85.9222851 251.13716341 -85.9222851 251.13716341 -88.125 252.375 C-90 253.25 -90 253.25 -94 253.25 C-94 253.91 -94 254.57 -94 255.25 C-95.65 254.92 -97.3 254.59 -99 254.25 C-99 254.91 -99 255.57 -99 256.25 C-100.97746603 256.98080266 -102.98072489 257.64421747 -105 258.25 C-105.66 257.92 -106.32 257.59 -107 257.25 C-107 257.91 -107 258.57 -107 259.25 C-110.6431485 261.19866083 -113.86463842 262.79051538 -118 263.25 C-118.66 262.92 -119.32 262.59 -120 262.25 C-120 262.91 -120 263.57 -120 264.25 C-124.43013778 266.69823404 -128.7683908 268.13331722 -133.6328125 269.40625 C-136.19812701 270.32061953 -137.8652669 271.58473103 -140 273.25 C-144.61538462 274.78846154 -144.61538462 274.78846154 -147 275.25 C-147.66 274.92 -148.32 274.59 -149 274.25 C-149.33 275.24 -149.66 276.23 -150 277.25 C-150 276.59 -150 275.93 -150 275.25 C-150.99 275.25 -151.98 275.25 -153 275.25 C-153.33 276.24 -153.66 277.23 -154 278.25 C-154.99 278.25 -155.98 278.25 -157 278.25 C-157.33 278.91 -157.66 279.57 -158 280.25 C-158.99 279.92 -159.98 279.59 -161 279.25 C-161 279.91 -161 280.57 -161 281.25 C-162.41601714 281.73108275 -163.83284437 282.20978141 -165.25 282.6875 C-166.43335938 283.08775391 -166.43335938 283.08775391 -167.640625 283.49609375 C-169.07291706 283.95376323 -170.51856162 284.37478209 -171.98046875 284.7265625 C-174.43044885 285.36156701 -176.71272311 286.24829808 -179.0625 287.1875 C-179.91972656 287.52652344 -180.77695312 287.86554688 -181.66015625 288.21484375 C-184.19473423 289.25657978 -184.19473423 289.25657978 -187 291.25 C-188.32796291 291.60412344 -189.66216607 291.93521554 -191 292.25 C-191.86625 292.62125 -192.7325 292.9925 -193.625 293.375 C-194.800625 293.808125 -194.800625 293.808125 -196 294.25 C-196.66 293.92 -197.32 293.59 -198 293.25 C-198.33 294.24 -198.66 295.23 -199 296.25 C-200.32 295.92 -201.64 295.59 -203 295.25 C-203.33 296.24 -203.66 297.23 -204 298.25 C-205.0725 298.3325 -206.145 298.415 -207.25 298.5 C-210.98320667 298.87697264 -210.98320667 298.87697264 -212.8125 301.125 C-216.62973634 304.83317245 -221.9832834 305.52736446 -227.0546875 306.7421875 C-229.12905395 307.28368878 -231.1125126 307.94907782 -233.125 308.6875 C-234.14980469 309.05681641 -234.14980469 309.05681641 -235.1953125 309.43359375 C-237.19606541 310.21086282 -237.19606541 310.21086282 -239 312.25 C-241.625 311.875 -241.625 311.875 -244 311.25 C-244 311.91 -244 312.57 -244 313.25 C-244.99 313.58 -245.98 313.91 -247 314.25 C-247.66 313.92 -248.32 313.59 -249 313.25 C-249.33 314.24 -249.66 315.23 -250 316.25 C-254.75 317.375 -254.75 317.375 -257 316.25 C-257.33 317.24 -257.66 318.23 -258 319.25 C-258.66 318.92 -259.32 318.59 -260 318.25 C-260.33 319.24 -260.66 320.23 -261 321.25 C-261.969375 321.37375 -262.93875 321.4975 -263.9375 321.625 C-264.948125 321.83125 -265.95875 322.0375 -267 322.25 C-267.33 322.91 -267.66 323.57 -268 324.25 C-271.55692677 325.10056945 -273.49270578 325.41909807 -277 324.25 C-277.33 325.24 -277.66 326.23 -278 327.25 C-279.32 326.92 -280.64 326.59 -282 326.25 C-281.67 327.24 -281.34 328.23 -281 329.25 C-287.75 330.375 -287.75 330.375 -290 329.25 C-290 329.91 -290 330.57 -290 331.25 C-290.99 331.25 -291.98 331.25 -293 331.25 C-293 332.24 -293 333.23 -293 334.25 C-293.969375 334.3325 -294.93875 334.415 -295.9375 334.5 C-299.93639903 335.05855067 -303.23345988 336.56021111 -306.86328125 338.2734375 C-309 339.25 -309 339.25 -312.25 340.3125 C-315.04907254 341.14438157 -315.04907254 341.14438157 -317.4375 342.8125 C-320.59040459 344.58120257 -323.44711184 344.77172659 -327 345.25 C-327.33 345.91 -327.66 346.57 -328 347.25 C-329.66475686 347.59274406 -331.33195323 347.92364302 -333 348.25 C-334.70652228 348.95836774 -336.41235136 349.66925726 -338.1015625 350.41796875 C-340.11553771 351.3006369 -342.14037757 352.13463228 -344.1875 352.9375 C-344.82042969 353.18886719 -345.45335937 353.44023437 -346.10546875 353.69921875 C-348 354.25 -348 354.25 -352 354.25 C-352 355.24 -352 356.23 -352 357.25 C-357.75 358.375 -357.75 358.375 -360 357.25 C-359.505 358.735 -359.505 358.735 -359 360.25 C-360.32 359.92 -361.64 359.59 -363 359.25 C-363 359.91 -363 360.57 -363 361.25 C-364.65 360.92 -366.3 360.59 -368 360.25 C-368 360.91 -368 361.57 -368 362.25 C-371.11154316 365.24186842 -373.82264654 365.64080262 -378 366.25 C-378.61875 366.58 -379.2375 366.91 -379.875 367.25 C-382.11393584 368.30361686 -383.74179069 368.50673229 -386.1875 368.75 C-387.445625 368.915 -388.70375 369.08 -390 369.25 C-390.33 369.91 -390.66 370.57 -391 371.25 C-391.721875 371.229375 -392.44375 371.20875 -393.1875 371.1875 C-395.91925138 371.24820559 -398.34256091 371.64258535 -401 372.25 C-401 372.91 -401 373.57 -401 374.25 C-406.86832253 376.06384514 -411.97491485 376.93113374 -418 375.25 C-420.59567577 373.05989857 -420.94254137 371.45110522 -421.875 368.1875 C-422 365.25 -422 365.25 -420.75 363.375 C-419 362.25 -419 362.25 -416 362.25 C-416 361.59 -416 360.93 -416 360.25 C-415.360625 360.12625 -414.72125 360.0025 -414.0625 359.875 C-413.381875 359.66875 -412.70125 359.4625 -412 359.25 C-411.67 358.59 -411.34 357.93 -411 357.25 C-407.9681144 355.36813998 -406.75482645 355.25 -403 355.25 C-403 354.26 -403 353.27 -403 352.25 C-401.68 352.25 -400.36 352.25 -399 352.25 C-399 351.59 -399 350.93 -399 350.25 C-396.36 349.92 -393.72 349.59 -391 349.25 C-391 348.59 -391 347.93 -391 347.25 C-383.57142857 345.10714286 -383.57142857 345.10714286 -380 344.25 C-380 343.59 -380 342.93 -380 342.25 C-377.03 341.92 -374.06 341.59 -371 341.25 C-371 340.59 -371 339.93 -371 339.25 C-369.68 339.25 -368.36 339.25 -367 339.25 C-367 338.59 -367 337.93 -367 337.25 C-364.03 336.92 -361.06 336.59 -358 336.25 C-358 335.59 -358 334.93 -358 334.25 C-355.36 333.92 -352.72 333.59 -350 333.25 C-350 332.59 -350 331.93 -350 331.25 C-348.453125 330.8478125 -348.453125 330.8478125 -346.875 330.4375 C-344.25594496 329.70055941 -342.2256969 328.86284845 -339.75 327.625 C-337 326.25 -337 326.25 -334 326.25 C-334 325.59 -334 324.93 -334 324.25 C-331.36 323.92 -328.72 323.59 -326 323.25 C-326 322.59 -326 321.93 -326 321.25 C-324.68 321.25 -323.36 321.25 -322 321.25 C-321.67 320.59 -321.34 319.93 -321 319.25 C-318.35139573 318.65644386 -315.70802678 318.50790731 -313 318.25 C-313 317.59 -313 316.93 -313 316.25 C-310.36 315.92 -307.72 315.59 -305 315.25 C-305 314.59 -305 313.93 -305 313.25 C-302.9170757 312.60284867 -300.83364461 311.95732834 -298.75 311.3125 C-297.58984375 310.95285156 -296.4296875 310.59320313 -295.234375 310.22265625 C-292.82910942 309.49933363 -290.44345956 308.82457589 -288 308.25 C-288 307.59 -288 306.93 -288 306.25 C-285.36 305.92 -282.72 305.59 -280 305.25 C-280 304.59 -280 303.93 -280 303.25 C-275.67435795 301.66744803 -271.571279 300.79855348 -267 300.25 C-267 299.59 -267 298.93 -267 298.25 C-264.36 297.92 -261.72 297.59 -259 297.25 C-259 296.59 -259 295.93 -259 295.25 C-257.4840625 294.8478125 -257.4840625 294.8478125 -255.9375 294.4375 C-253.26500397 293.68399706 -250.7815233 292.7639156 -248.25 291.625 C-245 290.25 -245 290.25 -242 290.25 C-242 289.59 -242 288.93 -242 288.25 C-239.36 287.92 -236.72 287.59 -234 287.25 C-234 286.59 -234 285.93 -234 285.25 C-231.36 284.92 -228.72 284.59 -226 284.25 C-226 283.59 -226 282.93 -226 282.25 C-224.35 282.25 -222.7 282.25 -221 282.25 C-221 281.59 -221 280.93 -221 280.25 C-220.030625 280.0025 -219.06125 279.755 -218.0625 279.5 C-214.26184466 278.42506718 -210.79443696 276.84743244 -207.21484375 275.1953125 C-205.17304308 274.32385613 -203.20657698 273.6866501 -201.0625 273.125 C-197.92209478 272.49585673 -197.92209478 272.49585673 -196 270.25 C-193.34462628 269.68479997 -190.70855287 269.51211802 -188 269.25 C-188 268.59 -188 267.93 -188 267.25 C-185.36 266.92 -182.72 266.59 -180 266.25 C-180 265.59 -180 264.93 -180 264.25 C-178.08396843 263.60228492 -176.16714887 262.95690052 -174.25 262.3125 C-173.18265625 261.95285156 -172.1153125 261.59320313 -171.015625 261.22265625 C-168.68264275 260.47017881 -166.38625005 259.80022756 -164 259.25 C-164 258.59 -164 257.93 -164 257.25 C-161.36 256.92 -158.72 256.59 -156 256.25 C-156 255.59 -156 254.93 -156 254.25 C-155.2575 254.12625 -154.515 254.0025 -153.75 253.875 C-151.04077127 253.37955263 -151.04077127 253.37955263 -148.9375 252.1875 C-147 251.25 -147 251.25 -143 251.25 C-143 250.59 -143 249.93 -143 249.25 C-140.03 248.92 -137.06 248.59 -134 248.25 C-134 247.59 -134 246.93 -134 246.25 C-132.576875 245.9096875 -132.576875 245.9096875 -131.125 245.5625 C-127.83931936 244.6446378 -125.01250553 243.28127204 -122 241.6875 C-117.87874156 239.54494974 -114.61851723 238.55120765 -110 238.25 C-110 237.59 -110 236.93 -110 236.25 C-107.36 235.92 -104.72 235.59 -102 235.25 C-102 234.59 -102 233.93 -102 233.25 C-100.5459375 232.87875 -100.5459375 232.87875 -99.0625 232.5 C-95.24653587 231.41855267 -91.74633203 229.84755875 -88.14453125 228.203125 C-84.39666287 226.53740572 -81.1155316 225.25 -77 225.25 C-77 224.59 -77 223.93 -77 223.25 C-69.57142857 221.10714286 -69.57142857 221.10714286 -66 220.25 C-66 219.59 -66 218.93 -66 218.25 C-63.36 217.92 -60.72 217.59 -58 217.25 C-58 216.59 -58 215.93 -58 215.25 C-56.35 215.25 -54.7 215.25 -53 215.25 C-53 214.59 -53 213.93 -53 213.25 C-50.36 212.92 -47.72 212.59 -45 212.25 C-45 211.59 -45 210.93 -45 210.25 C-41.86501708 208.39223235 -39.62528568 208.04859524 -36 208.25 C-36 207.26 -36 206.27 -36 205.25 C-35.34 205.25 -34.68 205.25 -34 205.25 C-34 204.59 -34 203.93 -34 203.25 C-32.989375 202.899375 -31.97875 202.54875 -30.9375 202.1875 C-26.41035627 200.25124708 -22.97231473 197.15431172 -20 193.25 C-19.28053891 191.1230716 -19.28053891 191.1230716 -19 189.25 C-18.34 189.25 -17.68 189.25 -17 189.25 C-17 188.59 -17 187.93 -17 187.25 C-16.34 187.25 -15.68 187.25 -15 187.25 C-14.67 185.27 -14.34 183.29 -14 181.25 C-13.34 181.25 -12.68 181.25 -12 181.25 C-12.0309375 180.0434375 -12.0309375 180.0434375 -12.0625 178.8125 C-12 176.25 -12 176.25 -11 175.25 C-10.71948521 170.48124857 -10.97164535 166.6109625 -13 162.25 C-14.91764174 160.8737206 -14.91764174 160.8737206 -17 160.25 C-17.66 159.92 -18.32 159.59 -19 159.25 C-19 158.59 -19 157.93 -19 157.25 C-21.31 156.92 -23.62 156.59 -26 156.25 C-26 155.59 -26 154.93 -26 154.25 C-26.763125 154.105625 -27.52625 153.96125 -28.3125 153.8125 C-31 153.25 -31 153.25 -34 152.25 C-34 151.59 -34 150.93 -34 150.25 C-34.99 150.58 -35.98 150.91 -37 151.25 C-37.391875 150.79625 -37.78375 150.3425 -38.1875 149.875 C-40.30832487 147.97357081 -42.33042235 147.18795972 -45 146.25 C-45 145.59 -45 144.93 -45 144.25 C-45.78375 143.940625 -46.5675 143.63125 -47.375 143.3125 C-50 142.25 -50 142.25 -52 141.25 C-52 140.59 -52 139.93 -52 139.25 C-52.8353125 138.87875 -52.8353125 138.87875 -53.6875 138.5 C-59.51458256 135.35022564 -63.50132474 130.80459784 -67 125.25 C-67 124.59 -67 123.93 -67 123.25 C-67.66 123.25 -68.32 123.25 -69 123.25 C-69 122.26 -69 121.27 -69 120.25 C-69.66 120.25 -70.32 120.25 -71 120.25 C-77.31751365 108.48435531 -77.31751365 108.48435531 -78 101.25 C-78.48750421 99.99921749 -78.99214156 98.75506065 -79.5078125 97.515625 C-81.82233543 90.75490833 -81.31988994 83.73414166 -81.1875 76.6875 C-81.17242111 75.28321753 -81.15873839 73.87891934 -81.14648438 72.47460938 C-81.11134406 69.06599885 -81.06214123 65.6582073 -81 62.25 C-80.34 62.25 -79.68 62.25 -79 62.25 C-79.0928125 60.826875 -79.0928125 60.826875 -79.1875 59.375 C-79.21810541 54.40672169 -77.57575543 49.9116098 -76 45.25 C-75.34 45.25 -74.68 45.25 -74 45.25 C-73.67 43.27 -73.34 41.29 -73 39.25 C-72.01 39.25 -71.02 39.25 -70 39.25 C-69.71125 38.3425 -69.4225 37.435 -69.125 36.5 C-68.23468224 33.92797092 -67.28505587 31.63653234 -66 29.25 C-65.34 29.25 -64.68 29.25 -64 29.25 C-64 28.59 -64 27.93 -64 27.25 C-62.3203125 25.5234375 -62.3203125 25.5234375 -60.125 23.625 C-59.40570312 22.99335937 -58.68640625 22.36171875 -57.9453125 21.7109375 C-56 20.25 -56 20.25 -54 20.25 C-53.9175 19.63125 -53.835 19.0125 -53.75 18.375 C-53 16.25 -53 16.25 -51 15.125 C-50.34 14.83625 -49.68 14.5475 -49 14.25 C-48.67 13.59 -48.34 12.93 -48 12.25 C-46.66666667 11.91666667 -45.33333333 11.58333333 -44 11.25 C-43.67 10.59 -43.34 9.93 -43 9.25 C-36.76923077 6.25 -36.76923077 6.25 -33 6.25 C-33 5.59 -33 4.93 -33 4.25 C-30.33763902 3.55975827 -27.67316679 2.89615737 -25 2.25 C-24.30310059 2.07227051 -23.60620117 1.89454102 -22.88818359 1.71142578 C-15.2692826 -0.04422679 -7.78917448 -0.04627232 0 0 Z " fill="#0B6108" transform="translate(657,79.75)"/>
<path d="M0 0 C0.57105469 0.48597656 1.14210938 0.97195313 1.73046875 1.47265625 C1.73046875 2.13265625 1.73046875 2.79265625 1.73046875 3.47265625 C2.39046875 3.47265625 3.05046875 3.47265625 3.73046875 3.47265625 C5.16796875 5.484375 5.16796875 5.484375 6.73046875 8.16015625 C7.24609375 9.03027344 7.76171875 9.90039062 8.29296875 10.796875 C12.75882606 19.10968004 14.11102085 28.95410061 11.5859375 38.15625 C8.241477 47.2122549 3.92959468 56.0065723 -4.26953125 61.47265625 C-2.94415001 65.44879997 -1.25722211 67.58455509 1.73046875 70.47265625 C1.73046875 71.13265625 1.73046875 71.79265625 1.73046875 72.47265625 C2.39046875 72.47265625 3.05046875 72.47265625 3.73046875 72.47265625 C6.73046875 75.93419471 6.73046875 75.93419471 6.73046875 78.47265625 C7.39046875 78.47265625 8.05046875 78.47265625 8.73046875 78.47265625 C10.23828125 80.22265625 10.23828125 80.22265625 11.85546875 82.47265625 C12.39429688 83.21515625 12.933125 83.95765625 13.48828125 84.72265625 C13.89820313 85.30015625 14.308125 85.87765625 14.73046875 86.47265625 C16.51344384 83.36959383 17.05028813 80.89679297 17.29296875 77.33984375 C17.36773437 76.36917969 17.4425 75.39851562 17.51953125 74.3984375 C17.66069386 72.35680793 17.80131479 70.31514085 17.94140625 68.2734375 C18.01617187 67.30535156 18.0909375 66.33726562 18.16796875 65.33984375 C18.22855469 64.45409668 18.28914063 63.56834961 18.3515625 62.65576172 C18.73046875 60.47265625 18.73046875 60.47265625 20.73046875 58.47265625 C23.91796875 58.20703125 23.91796875 58.20703125 27.73046875 58.22265625 C28.98859375 58.2175 30.24671875 58.21234375 31.54296875 58.20703125 C34.73046875 58.47265625 34.73046875 58.47265625 36.73046875 60.47265625 C37.87018014 72.9759606 36.72925085 86.6924422 32.10546875 98.34765625 C30.58750125 102.83242693 30.58750125 102.83242693 32.0078125 107.18359375 C34.10634905 109.80172956 36.33328718 112.12647854 38.73046875 114.47265625 C46.14514624 122.69895891 46.14514624 122.69895891 46.41796875 127.72265625 C45.66854407 131.81042725 44.73771977 133.64230235 41.73046875 136.47265625 C41.07046875 136.47265625 40.41046875 136.47265625 39.73046875 136.47265625 C39.07046875 138.12265625 38.41046875 139.77265625 37.73046875 141.47265625 C37.07046875 141.47265625 36.41046875 141.47265625 35.73046875 141.47265625 C35.40046875 142.13265625 35.07046875 142.79265625 34.73046875 143.47265625 C30.52640251 139.40444853 26.85673251 135.06684327 23.21679688 130.49414062 C22.09709855 129.11802284 20.91809059 127.79060119 19.73046875 126.47265625 C19.07046875 126.47265625 18.41046875 126.47265625 17.73046875 126.47265625 C15.90317826 128.40796391 14.26151497 130.46313248 12.58203125 132.52734375 C10.72448927 134.47893849 9.19575566 135.44092825 6.73046875 136.47265625 C6.73046875 137.13265625 6.73046875 137.79265625 6.73046875 138.47265625 C-4.68568415 145.18367021 -16.27673074 145.63097625 -29.26953125 143.47265625 C-32.56534468 142.15346012 -35.41138382 140.5717293 -38.26953125 138.47265625 C-38.26953125 137.81265625 -38.26953125 137.15265625 -38.26953125 136.47265625 C-39.16865234 136.07046875 -39.16865234 136.07046875 -40.0859375 135.66015625 C-46.76290117 132.02903468 -50.61136631 124.30363861 -53.26953125 117.47265625 C-57.10349528 104.10344488 -56.60878077 88.35754238 -50.53515625 75.734375 C-46.93913896 69.30815892 -42.72467273 63.43187577 -37.26953125 58.47265625 C-38.36685747 55.28043453 -39.78087232 52.63454314 -41.64453125 49.84765625 C-47.04123603 41.29620119 -49.68479492 32.59055006 -48.26953125 22.47265625 C-45.87552568 12.73773981 -42.40523893 4.7344567 -34.03125 -1.08203125 C-23.03043847 -7.62705189 -10.64757279 -6.88960593 0 0 Z M-25.83203125 18.97265625 C-28.58257235 23.75620599 -28.43085857 28.04375709 -27.83203125 33.34765625 C-26.25568304 38.95990305 -22.04622227 43.18655109 -18.26953125 47.47265625 C-13.15932548 44.6298359 -10.31738771 42.006048 -8.26953125 36.47265625 C-7.39358855 30.26397438 -7.0499585 24.66788721 -10.14453125 19.09765625 C-15.29122431 16.42137586 -20.72671635 15.98417924 -25.83203125 18.97265625 Z M-24.26953125 74.47265625 C-31.883333 82.72858586 -35.67263253 90.63622613 -35.47265625 101.8515625 C-34.96381787 108.41753466 -33.3128095 112.91874743 -28.39453125 117.41015625 C-23.61297282 121.16585306 -19.76868959 123.03678486 -13.515625 122.84765625 C-6.36100609 121.65314596 -0.7600447 117.61926628 3.8671875 112.21875 C4.91764033 110.4925243 4.91764033 110.4925243 4.49609375 108.4609375 C3.33950689 105.45735225 1.65394448 103.03729056 -0.26953125 100.47265625 C-0.92953125 100.47265625 -1.58953125 100.47265625 -2.26953125 100.47265625 C-3.26953125 98.47265625 -4.26953125 96.47265625 -5.26953125 94.47265625 C-5.92953125 94.47265625 -6.58953125 94.47265625 -7.26953125 94.47265625 C-7.50929688 93.92480469 -7.7490625 93.37695312 -7.99609375 92.8125 C-9.57434908 89.91257685 -11.52894802 87.56893617 -13.64453125 85.03515625 C-18.25480347 79.4920363 -18.25480347 79.4920363 -20.43359375 76.625 C-21.03945312 75.91472656 -21.6453125 75.20445312 -22.26953125 74.47265625 C-22.92953125 74.47265625 -23.58953125 74.47265625 -24.26953125 74.47265625 Z " fill="#0B6208" transform="translate(268.26953125,502.52734375)"/>
<path d="M0 0 C0 0.66 0 1.32 0 2 C1.11375 1.938125 2.2275 1.87625 3.375 1.8125 C5.169375 1.9053125 5.169375 1.9053125 7 2 C9.22348468 5.33522703 9.25231006 6.38677221 9.26069641 10.27587891 C9.26778122 11.36950745 9.27486603 12.46313599 9.28216553 13.58990479 C9.27968811 14.79000183 9.27721069 15.99009888 9.2746582 17.2265625 C9.27976913 18.49014587 9.28488007 19.75372925 9.29014587 21.05560303 C9.30354663 24.52248776 9.30411346 27.98926354 9.30158257 31.45616913 C9.30051376 34.34896792 9.30539383 37.24174459 9.310188 40.13453865 C9.32128652 46.95754777 9.32171841 53.78050184 9.31567383 60.60351562 C9.30963027 67.64669005 9.32195382 74.68966489 9.3432439 81.73280525 C9.36084389 87.77703693 9.36686387 93.82120498 9.36360615 99.86546135 C9.36179085 103.47670797 9.364454 107.08781218 9.37832069 110.69903564 C9.3931976 114.72396872 9.38394307 118.7484938 9.37231445 122.7734375 C9.37995819 123.97353455 9.38760193 125.17363159 9.39547729 126.41009521 C9.38846298 127.50372375 9.38144867 128.59735229 9.3742218 129.72412109 C9.37438954 130.67612396 9.37455729 131.62812683 9.37473011 132.60897827 C9 135 9 135 7.69340801 136.80484009 C4.89540849 138.77958973 1.79412667 138.43147074 -1.5 138.375 C-2.17675781 138.38660156 -2.85351562 138.39820313 -3.55078125 138.41015625 C-8.51450867 138.38078508 -8.51450867 138.38078508 -10.53613281 136.79516602 C-12.31519851 134.61346654 -13.57117578 132.3670293 -14.890625 129.87890625 C-15.43195068 128.86666992 -15.97327637 127.85443359 -16.53100586 126.81152344 C-17.38190796 125.20325684 -17.38190796 125.20325684 -18.25 123.5625 C-23.44471049 113.82257256 -23.44471049 113.82257256 -28.9375 104.25 C-31.6983952 99.61006802 -34.09548324 94.8475236 -36.46875 90 C-38.56365051 85.89570511 -40.92485771 81.96826153 -43.27734375 78.0078125 C-45.54051525 74.05624322 -47.51818635 69.98697587 -49.51953125 65.8984375 C-51.40649954 62.20416185 -53.51811674 58.68045687 -55.703125 55.15625 C-56.91341409 53.14396212 -57.96290889 51.10504148 -59 49 C-59.00586624 50.05600403 -59.01173248 51.11200806 -59.01777649 52.20001221 C-59.07496476 62.14703003 -59.14770594 72.09382842 -59.23571491 82.04062271 C-59.28046146 87.15450722 -59.31970814 92.26831127 -59.34643555 97.38232422 C-59.37242576 102.31672291 -59.41279778 107.25081268 -59.46318626 112.18502045 C-59.47988398 114.06845002 -59.49138014 115.95193306 -59.49761391 117.83542633 C-59.50722345 120.47166912 -59.53524453 123.10711641 -59.56762695 125.74316406 C-59.56619186 126.52359573 -59.56475677 127.3040274 -59.5632782 128.10810852 C-59.61901402 131.3118439 -59.80469487 133.63806169 -61.33976746 136.48284912 C-63.89361368 138.81660053 -66.04872733 138.53077206 -69.4375 138.5 C-71.13712891 138.51546875 -71.13712891 138.51546875 -72.87109375 138.53125 C-76.66676365 137.88679169 -77.6277664 136.9706913 -80 134 C-80.50057125 131.5199585 -80.50057125 131.5199585 -80.50120544 128.68652344 C-80.51103958 127.6097937 -80.52087372 126.53306396 -80.53100586 125.42370605 C-80.52133789 124.24747681 -80.51166992 123.07124756 -80.50170898 121.859375 C-80.50711197 120.61675903 -80.51251495 119.37414307 -80.51808167 118.09387207 C-80.52844715 114.68863809 -80.52086552 111.28437546 -80.50437045 107.87922668 C-80.49051559 104.31498827 -80.49698052 100.75077906 -80.50050354 97.18652344 C-80.50320533 91.20108911 -80.48973291 85.21585535 -80.46655273 79.23046875 C-80.43994303 72.31167082 -80.43819592 65.39320824 -80.4499411 58.47437668 C-80.46072244 51.81722475 -80.45452906 45.16019406 -80.44038582 38.50305176 C-80.43462906 35.67058444 -80.43470623 32.83820592 -80.43945122 30.0057373 C-80.445112 26.05057091 -80.42589773 22.09573972 -80.40405273 18.140625 C-80.40855438 16.96439575 -80.41305603 15.7881665 -80.41769409 14.57629395 C-80.40778946 13.49956421 -80.39788483 12.42283447 -80.38768005 11.31347656 C-80.38525016 10.37844299 -80.38282026 9.44340942 -80.38031673 8.4800415 C-79.92285056 5.49690932 -79.1223556 4.12966159 -77 2 C-71.50216343 1.03223827 -64.0070245 0.22585554 -59.046875 3.15234375 C-57.66983056 5.02971434 -56.86338522 6.83602598 -56 9 C-55.06972649 10.85780286 -54.13151262 12.71164062 -53.1875 14.5625 C-52.68347656 15.59890625 -52.17945313 16.6353125 -51.66015625 17.703125 C-49.62122215 21.75220825 -47.37287708 25.65948101 -45.10009766 29.58081055 C-42.31084436 34.41160752 -39.6776668 39.31321249 -37.07519531 44.24658203 C-34.58916349 48.94093772 -32.000609 53.56999278 -29.375 58.1875 C-26.25366543 63.68099609 -23.34564524 69.23382323 -20.57568359 74.91479492 C-18.93098216 78.13513766 -17.15450586 81.24340416 -15.3203125 84.359375 C-14.69656738 85.42124023 -14.07282227 86.48310547 -13.43017578 87.57714844 C-12.95821777 88.37668945 -12.48625977 89.17623047 -12 90 C-11.99120064 88.43478607 -11.99120064 88.43478607 -11.98222351 86.83795166 C-11.92503378 77.00866127 -11.85229185 67.17959292 -11.76428509 57.35052872 C-11.71953965 52.29717856 -11.68029273 47.24390981 -11.65356445 42.19042969 C-11.62757312 37.31438373 -11.58720032 32.43865032 -11.53681374 27.56279755 C-11.52011677 25.70169713 -11.50862015 23.84054262 -11.50238609 21.97937775 C-11.49277571 19.37426413 -11.46475372 16.76995525 -11.43237305 14.16503906 C-11.43452568 13.00841766 -11.43452568 13.00841766 -11.4367218 11.82843018 C-11.38096925 8.66114763 -11.20313885 6.36992061 -9.66438293 3.56781006 C-6.96600478 1.02600053 -3.68777991 0 0 0 Z " fill="#0B6108" transform="translate(1181,507)"/>
<path d="M0 0 C0.495 0.99 0.495 0.99 1 2 C1.76183594 1.97679687 2.52367187 1.95359375 3.30859375 1.9296875 C17.58473308 1.68016696 28.65855461 5.4158153 39.41796875 15.28515625 C53.22466173 30.25092963 58.18706453 48.82630069 58.29516602 68.67285156 C58.30658187 70.12314694 58.3268649 71.57340388 58.35668945 73.0234375 C58.66589922 88.1142562 55.9745292 101.43050782 49 115 C48.62101562 115.75796875 48.24203125 116.5159375 47.8515625 117.296875 C47.57054687 117.85890625 47.28953125 118.4209375 47 119 C46.34 119 45.68 119 45 119 C44.62875 120.0828125 44.62875 120.0828125 44.25 121.1875 C40.31389129 130.0437446 31.29834564 135.89139377 22.5625 139.4375 C16.64783098 141.61043442 11.51563407 142.20904814 5.25 142.25 C4.08984375 142.2809375 4.08984375 142.2809375 2.90625 142.3125 C-2.71012745 142.35019381 -6.91326717 141.44071934 -12 139 C-12.33 138.01 -12.66 137.02 -13 136 C-13.56203125 136.22300781 -14.1240625 136.44601562 -14.703125 136.67578125 C-17.91043326 137.12851354 -19.13314692 136.01331089 -21.75 134.1875 C-22.54921875 133.64480469 -23.3484375 133.10210938 -24.171875 132.54296875 C-25.07679688 131.77919922 -25.07679688 131.77919922 -26 131 C-26 130.34 -26 129.68 -26 129 C-26.85464844 128.66355469 -26.85464844 128.66355469 -27.7265625 128.3203125 C-38.70648004 121.94365936 -42.68868758 106.58625888 -46.12109375 95.3203125 C-51.58199196 74.6902526 -48.75898677 48.24691724 -39.2109375 29.484375 C-29.48925876 12.82970624 -17.48078719 6.17343334 0 0 Z M-12 29 C-12 29.66 -12 30.32 -12 31 C-12.66 31 -13.32 31 -14 31 C-14 31.66 -14 32.32 -14 33 C-14.99 33.33 -15.98 33.66 -17 34 C-18.56095395 36.13147092 -18.56095395 36.13147092 -19.9375 38.8125 C-20.42089844 39.68519531 -20.90429688 40.55789063 -21.40234375 41.45703125 C-25.92751496 51.49206863 -27.69432667 60.22972759 -27.5625 71.25 C-27.55371826 72.52254639 -27.54493652 73.79509277 -27.53588867 75.10620117 C-27.25814477 87.9504227 -25.02913982 99.58381861 -17 110 C-16.34 110 -15.68 110 -15 110 C-14.7215625 110.86625 -14.7215625 110.86625 -14.4375 111.75 C-11.60419942 116.18473133 -5.86049667 118.33168688 -1 120 C6.50711772 120.8073297 13.0666501 119.94142117 20 117 C20 116.34 20 115.68 20 115 C20.59941406 114.731875 21.19882813 114.46375 21.81640625 114.1875 C29.99324493 109.74070401 34.16111979 99.31233608 36.8125 90.875 C39.78945536 77.7763964 40.03884471 60.56112003 35 48 C34.5359375 46.83210937 34.071875 45.66421875 33.59375 44.4609375 C29.50552489 34.98283829 24.10275176 28.66301895 14.5625 24.5 C4.44311123 23.07973491 -2.96557875 24.10635515 -12 29 Z " fill="#0B6208" transform="translate(1026,505)"/>
<path d="M0 0 C8.47581644 6.64838168 13.28948372 15.96768644 14.75390625 26.55078125 C15.52102267 34.18541606 15.52102267 34.18541606 13.953125 36.63671875 C10.97525111 38.71527472 7.93169087 38.39514406 4.4375 38.3125 C3.75236328 38.31572266 3.06722656 38.31894531 2.36132812 38.32226562 C-2.73272414 38.26727586 -2.73272414 38.26727586 -5 36 C-5.51688733 34.07729275 -5.96653404 32.13612291 -6.375 30.1875 C-7.86661056 23.85907108 -7.86661056 23.85907108 -12 19 C-17.2598532 16.06662033 -22.10396295 15.70498495 -28.0625 15.625 C-28.73506836 15.61106201 -29.40763672 15.59712402 -30.10058594 15.58276367 C-36.15804915 15.6397838 -40.87082786 17.0389204 -45.375 21.1875 C-47.43023825 24.74464313 -48.19282344 27.9352819 -48 32 C-46.85028221 35.89626585 -46.10625477 38.22485609 -42.7421875 40.58203125 C-39.93065411 42.03585835 -37.28590286 42.98625124 -34.25 43.875 C-33.11433594 44.21402344 -31.97867188 44.55304687 -30.80859375 44.90234375 C-28.11617409 45.6783129 -25.42212254 46.44098248 -22.72265625 47.19140625 C-14.71925296 49.43839612 -7.21500335 51.74606739 0 56 C0.63808594 56.37382813 1.27617188 56.74765625 1.93359375 57.1328125 C3.625 58.1875 3.625 58.1875 6 60 C6 60.66 6 61.32 6 62 C7.485 62.495 7.485 62.495 9 63 C17.26016394 74.49800103 19.13600188 84.51172295 17.7578125 98.44921875 C16.41841805 106.06189948 12.23437522 112.64843716 8 119 C7.34 119 6.68 119 6 119 C6 119.66 6 120.32 6 121 C-3.73240577 130.51492185 -15.50488635 132.08347353 -28.5546875 131.96875 C-42.22349916 131.37055255 -52.33071665 127.23056891 -61.6875 117.25 C-69.39630487 108.00999417 -72.11951749 97.97722953 -72.36328125 86.1640625 C-72 84 -72 84 -70.9921875 82.22265625 C-67.80225255 80.26491186 -64.43199759 80.6892158 -60.8125 80.8125 C-59.68811523 80.83280273 -59.68811523 80.83280273 -58.54101562 80.85351562 C-56.69370233 80.88881461 -54.84675934 80.94262083 -53 81 C-52.7525 82.27875 -52.505 83.5575 -52.25 84.875 C-50.4440113 92.78398499 -48.46474776 99.52088807 -42.07421875 104.84375 C-36.68992603 107.84516365 -31.0495721 108.34147305 -25 108.3125 C-23.99066406 108.33666992 -23.99066406 108.33666992 -22.9609375 108.36132812 C-16.61501615 108.36745353 -12.19144224 106.70445508 -7.1875 102.8125 C-3.84414274 98.51389781 -2.8359418 94.72746763 -3.15625 89.40234375 C-3.94998197 84.05348447 -3.94998197 84.05348447 -7.21875 79.859375 C-14.01484402 75.31591889 -22.18548305 73.16536336 -30 71 C-56.89793492 63.49846482 -56.89793492 63.49846482 -63.95092773 51.89526367 C-67.80323086 44.93565716 -68.49642695 38.88907049 -68.4375 31.0625 C-68.4674707 29.65581055 -68.4674707 29.65581055 -68.49804688 28.22070312 C-68.4934437 21.59673114 -67.1120519 16.81286065 -64 11 C-63.33131346 9.66767852 -62.66405321 8.33463686 -62 7 C-61.34 7 -60.68 7 -60 7 C-59.731875 6.401875 -59.46375 5.80375 -59.1875 5.1875 C-55.44827665 -1.700543 -48.15943387 -4.75548295 -41 -7 C-27.18180151 -10.50091942 -11.69744938 -8.1238453 0 0 Z " fill="#0B6208" transform="translate(792,515)"/>
<path d="M0 0 C0.68513672 -0.00322266 1.37027344 -0.00644531 2.07617188 -0.00976562 C7.17022414 0.04522414 7.17022414 0.04522414 9.4375 2.3125 C9.67800903 4.45120239 9.67800903 4.45120239 9.66455078 7.12939453 C9.66439972 8.13028107 9.66424866 9.1311676 9.66409302 10.16238403 C9.65377045 11.24575043 9.64344788 12.32911682 9.6328125 13.4453125 C9.6299826 14.55228485 9.62715271 15.6592572 9.62423706 16.79977417 C9.61301519 20.34579137 9.58790691 23.89155875 9.5625 27.4375 C9.5524728 29.83723594 9.5433465 32.23697583 9.53515625 34.63671875 C9.51476836 40.52882022 9.47562299 46.42037948 9.4375 52.3125 C25.2775 52.3125 41.1175 52.3125 57.4375 52.3125 C57.31884164 36.69564466 57.31884164 36.69564466 57.16723633 21.07910156 C57.15847401 19.12044769 57.15082947 17.16178835 57.14453125 15.203125 C57.1215094 13.67921143 57.1215094 13.67921143 57.09802246 12.12451172 C57.09747864 10.66343994 57.09747864 10.66343994 57.09692383 9.17285156 C57.08693108 7.90710297 57.08693108 7.90710297 57.07673645 6.61578369 C57.52835223 3.73245677 58.39135255 2.37760255 60.4375 0.3125 C63.28085616 -0.06641525 65.66975993 -0.2025751 68.5 -0.125 C69.23283203 -0.13208984 69.96566406 -0.13917969 70.72070312 -0.14648438 C72.84765625 -0.12109375 72.84765625 -0.12109375 76.4375 0.3125 C78.65967435 3.64576152 78.69124042 4.70130325 78.70492554 8.58837891 C78.71345551 9.68200745 78.72198547 10.77563599 78.73077393 11.90240479 C78.72986755 13.10250183 78.72896118 14.30259888 78.72802734 15.5390625 C78.73474457 16.80264587 78.74146179 18.06622925 78.74838257 19.36810303 C78.76605867 22.83497773 78.77073853 26.30175372 78.77201414 29.76866913 C78.77391263 32.6614696 78.78126933 35.55424704 78.78835833 38.44703865 C78.80464498 45.27004284 78.80952693 52.09299424 78.80810547 58.91601562 C78.80690302 65.95923996 78.82802447 73.00215837 78.8595928 80.04530525 C78.88572048 86.08953865 78.89647429 92.13367189 78.89519465 98.17796135 C78.8946841 101.78926217 78.9004184 105.40029098 78.92155075 109.01153564 C78.9444617 113.03655017 78.93543396 117.06087605 78.92333984 121.0859375 C78.93457886 122.28603455 78.94581787 123.48613159 78.95739746 124.72259521 C78.94900848 125.81622375 78.94061951 126.90985229 78.93197632 128.03662109 C78.93306585 128.98862396 78.93415539 129.94062683 78.93527794 130.92147827 C78.4375 133.3125 78.4375 133.3125 76.59995461 135.11514282 C73.63549486 136.75657249 71.30937377 136.74613317 67.9375 136.75 C66.8134375 136.76933594 65.689375 136.78867187 64.53125 136.80859375 C60.73783276 136.20030588 59.79067044 135.29323474 57.4375 132.3125 C56.95648193 129.6675415 56.95648193 129.6675415 56.98339844 126.62597656 C56.98370056 125.48509583 56.98400269 124.34421509 56.98431396 123.16876221 C57.00495911 121.94260193 57.02560425 120.71644165 57.046875 119.453125 C57.05253479 118.19361023 57.05819458 116.93409546 57.06402588 115.63641357 C57.08261953 112.29540976 57.11852672 108.95550533 57.1628418 105.61480713 C57.20383496 102.20293835 57.22226489 98.79095242 57.2421875 95.37890625 C57.28290217 88.68948615 57.36119405 82.00198801 57.4375 75.3125 C41.9275 75.6425 26.4175 75.9725 10.4375 76.3125 C10.40011719 80.47617187 10.36273437 84.63984375 10.32421875 88.9296875 C10.2861258 92.24482976 10.24505297 95.5599052 10.2019577 98.87498474 C10.1572514 102.37708369 10.11782597 105.8790617 10.09106445 109.38134766 C10.0601341 113.397764 10.00534357 117.41354367 9.94921875 121.4296875 C9.94282883 122.68804413 9.9364389 123.94640076 9.92985535 125.2428894 C9.91006119 126.40394196 9.89026703 127.56499451 9.86987305 128.76123047 C9.85876999 129.78715302 9.84766693 130.81307556 9.83622742 131.87008667 C9.70464737 132.67608307 9.57306732 133.48207947 9.4375 134.3125 C5.89151732 136.67648846 4.20420901 136.61068374 0 136.625 C-1.13308594 136.64175781 -2.26617188 136.65851563 -3.43359375 136.67578125 C-6.92725254 136.27015045 -8.08708839 135.74916931 -10.5625 133.3125 C-11.06307125 130.92147827 -11.06307125 130.92147827 -11.06370544 128.03662109 C-11.07353958 126.94299255 -11.08337372 125.84936401 -11.09350586 124.72259521 C-11.07900391 122.92244965 -11.07900391 122.92244965 -11.06420898 121.0859375 C-11.06961197 119.82235413 -11.07501495 118.55877075 -11.08058167 117.25689697 C-11.09455754 113.78986744 -11.08335213 110.32333297 -11.06687045 106.85633087 C-11.05303249 103.23022561 -11.05947859 99.60414947 -11.06300354 95.97802734 C-11.06570667 89.88826507 -11.05222139 83.79869978 -11.02905273 77.70898438 C-11.0024422 70.66578905 -11.00069542 63.62292312 -11.0124411 56.57969475 C-11.02321586 49.80774593 -11.01703423 43.0359164 -11.00288582 36.26397705 C-10.99712334 33.38044418 -10.99721071 30.49699852 -11.00195122 27.61346436 C-11.00760436 23.58848089 -10.98841444 19.56399046 -10.96655273 15.5390625 C-10.97105438 14.33896545 -10.97555603 13.13886841 -10.98019409 11.90240479 C-10.97028946 10.80877625 -10.96038483 9.71514771 -10.95018005 8.58837891 C-10.94775016 7.63637604 -10.94532026 6.68437317 -10.94281673 5.70352173 C-10.5625 3.3125 -10.5625 3.3125 -9.25726414 1.50546265 C-6.44524436 -0.47394822 -3.30604903 -0.07819416 0 0 Z " fill="#0B6208" transform="translate(837.5625,508.6875)"/>
<path d="M0 0 C6.27 0 12.54 0 19 0 C22.82898351 8.77678072 25.93255108 17.59483507 28.81860352 26.71414185 C30.11721779 30.81365232 31.43510219 34.90694738 32.75390625 39 C33.0235318 39.83721085 33.29315735 40.67442169 33.57095337 41.53700256 C36.27852328 49.9142524 39.12370568 58.24194385 42 66.5625 C46.25945834 78.89322382 50.44626499 91.24567387 54.5625 103.625 C54.94353882 104.7709111 54.94353882 104.7709111 55.33227539 105.93997192 C57.32424076 111.93269536 57.32424076 111.93269536 58.17764282 114.51603699 C59.10077909 117.30898959 60.03380311 120.09682 61.00341797 122.87402344 C62.26013646 126.47911082 63 129.13705981 63 133 C62.34 133 61.68 133 61 133 C61 133.66 61 134.32 61 135 C57.84044583 136.57977708 54.46536183 136.18447084 51 136.1875 C50.26265625 136.19974609 49.5253125 136.21199219 48.765625 136.22460938 C46.84229942 136.22987395 44.91945737 136.12203447 43 136 C40.33901329 133.33901329 39.79050744 130.82818207 38.625 127.25 C38.40803467 126.58548828 38.19106934 125.92097656 37.9675293 125.23632812 C35.80473516 118.53966493 33.88421668 111.77988884 32 105 C31.01 101.535 31.01 101.535 30 98 C17.13 98 4.26 98 -9 98 C-10.68140321 103.04420962 -12.34349873 108.04258427 -13.875 113.125 C-15.42755464 118.17677396 -16.99860516 123.22153868 -18.625 128.25 C-18.83108887 128.90629395 -19.03717773 129.56258789 -19.24951172 130.23876953 C-19.77552339 131.8458141 -20.38144314 133.42625671 -21 135 C-23.93922933 136.46961466 -26.60408972 136.20919862 -29.875 136.25 C-31.10992188 136.27578125 -32.34484375 136.3015625 -33.6171875 136.328125 C-37.14948054 135.98550073 -38.4765715 135.40930359 -41 133 C-40.31625233 126.4766776 -38.4965564 120.39703404 -36.625 114.125 C-36.32078125 113.08730469 -36.0165625 112.04960938 -35.703125 110.98046875 C-33.54554916 103.66868397 -31.1818563 96.44887156 -28.7109375 89.23828125 C-25.21286453 78.99758396 -22.065332 68.66281348 -18.97979736 58.29135132 C-15.95210163 48.1167527 -12.81468419 37.98394132 -9.5625 27.87890625 C-8.54118482 24.70544467 -7.54004854 21.52705931 -6.5625 18.33984375 C-6.33916992 17.6132959 -6.11583984 16.88674805 -5.88574219 16.13818359 C-5.30121142 14.22970411 -4.72072351 12.31998762 -4.140625 10.41015625 C-2.95603264 6.86854963 -1.47107824 3.43251589 0 0 Z M9 32 C7.85327715 35.64097715 6.71311313 39.28382045 5.58203125 42.9296875 C4.43328055 46.62915483 3.25744622 50.31923712 2.07421875 54.0078125 C1.42408097 56.06758269 0.77433885 58.12747781 0.125 60.1875 C-0.19734619 61.17886963 -0.51969238 62.17023926 -0.85180664 63.19165039 C-1.14563232 64.13258545 -1.43945801 65.07352051 -1.7421875 66.04296875 C-2.0088623 66.87852295 -2.27553711 67.71407715 -2.55029297 68.57495117 C-3.23557056 71.43250749 -3.23557056 71.43250749 -2 76 C5.92 76 13.84 76 22 76 C23.11720922 71.53116311 22.68468744 70.17248741 21.26953125 65.90625 C20.87830078 64.71 20.48707031 63.51375 20.08398438 62.28125 C19.66439453 61.0334375 19.24480469 59.785625 18.8125 58.5 C18.21211914 56.6746875 18.21211914 56.6746875 17.59960938 54.8125 C16.41048605 51.20465743 15.20706405 47.60187516 14 44 C13.23277642 41.69801546 12.4658263 39.39593976 11.69921875 37.09375 C11.13291085 35.39580053 10.56654473 33.69787047 10 32 C9.67 32 9.34 32 9 32 Z " fill="#0B6208" transform="translate(652,509)"/>
<path d="M0 0 C34.70171797 -0.0229077 69.4034342 -0.04051924 104.10515811 -0.05106533 C108.20552208 -0.05231598 112.30588605 -0.05361031 116.40625 -0.05493164 C117.63067108 -0.05532511 117.63067108 -0.05532511 118.87982795 -0.05572652 C132.08283703 -0.06007335 145.28584174 -0.06795548 158.48884824 -0.0771528 C172.04453467 -0.08651677 185.60021882 -0.09206142 199.15590835 -0.09408849 C207.51499535 -0.09545802 215.87407 -0.0997777 224.23315319 -0.10791647 C229.97160558 -0.11321779 235.71005161 -0.11479661 241.44850627 -0.11350138 C244.75523759 -0.11286328 248.06194296 -0.11436876 251.36867142 -0.11920547 C254.96407998 -0.12420534 258.55943634 -0.12297516 262.15484619 -0.12025452 C263.18601193 -0.12316736 264.21717766 -0.1260802 265.27959085 -0.12908131 C285.39607867 -0.08814178 285.39607867 -0.08814178 292 4 C293.6396875 4.61875 293.6396875 4.61875 295.3125 5.25 C298 7 298 7 298.9375 10.3125 C298.99527755 13.72137535 298.60756463 16.66074942 298 20 C258.68625969 19.91829233 219.37255658 19.82615088 180.05887447 19.71994839 C175.42116717 19.707429 170.78345963 19.69499631 166.14575195 19.68261719 C165.22243892 19.68015119 164.29912589 19.6776852 163.34783367 19.67514448 C148.38309478 19.63538341 133.4183483 19.60265091 118.45358732 19.57250018 C103.10685157 19.541424 87.76014811 19.50283114 72.41344863 19.45720994 C62.93805397 19.42928084 53.46268302 19.40726704 43.98725817 19.39273749 C37.49615823 19.38222334 31.00510411 19.3644308 24.51403864 19.34083296 C20.76488563 19.32742066 17.01579704 19.31729577 13.26661873 19.31578636 C9.20819428 19.31406893 5.14998064 19.29706522 1.09159851 19.2784729 C-0.10196599 19.28040763 -1.29553049 19.28234237 -2.52526361 19.28433573 C-3.60760599 19.27687024 -4.68994836 19.26940475 -5.805089 19.26171303 C-6.74261849 19.25943471 -7.68014799 19.25715638 -8.64608747 19.25480902 C-11 19 -11 19 -14 17 C-15.1875 14.375 -15.1875 14.375 -16 12 C-13.82575883 9.49962266 -12.26954202 8.56371414 -9 8 C-9 7.01 -9 6.02 -9 5 C-8.360625 4.87625 -7.72125 4.7525 -7.0625 4.625 C-6.381875 4.41875 -5.70125 4.2125 -5 4 C-4.67 3.34 -4.34 2.68 -4 2 C-2.68 2 -1.36 2 0 2 C0 1.34 0 0.68 0 0 Z " fill="#0B6108" transform="translate(136,742)"/>
<path d="M0 0 C1.39674501 0.02436712 2.79349931 0.04820708 4.19026184 0.07154846 C7.82836666 0.13373501 11.46630251 0.20297894 15.10424805 0.27380371 C18.83179165 0.3450866 22.55945302 0.40954198 26.28710938 0.47460938 C33.57304711 0.60277539 40.85881966 0.73841361 48.14453125 0.87890625 C48.14453125 1.53890625 48.14453125 2.19890625 48.14453125 2.87890625 C48.80453125 2.87890625 49.46453125 2.87890625 50.14453125 2.87890625 C50.19832351 5.83748034 50.23810218 8.79508346 50.26953125 11.75390625 C50.28628906 12.59566406 50.30304688 13.43742188 50.3203125 14.3046875 C50.32675781 15.11035156 50.33320313 15.91601562 50.33984375 16.74609375 C50.35031738 17.48972168 50.36079102 18.23334961 50.37158203 18.99951172 C50.14453125 20.87890625 50.14453125 20.87890625 48.14453125 22.87890625 C45.81600952 23.11941528 45.81600952 23.11941528 42.86865234 23.10595703 C41.76766205 23.10580597 40.66667175 23.10565491 39.53231812 23.10549927 C38.33958282 23.0951767 37.14684753 23.08485413 35.91796875 23.07421875 C34.70001617 23.07138885 33.4820636 23.06855896 32.22720337 23.06564331 C28.32454742 23.05441881 24.42211822 23.02930997 20.51953125 23.00390625 C17.87890956 22.99387939 15.23828428 22.98475303 12.59765625 22.9765625 C6.11312291 22.95617089 -0.37091812 22.91702575 -6.85546875 22.87890625 C-6.85546875 33.76890625 -6.85546875 44.65890625 -6.85546875 55.87890625 C-1.81845703 55.79189453 -1.81845703 55.79189453 3.3203125 55.703125 C6.56695188 55.66414904 9.81356536 55.63377888 13.06030273 55.60424805 C15.31953567 55.5790787 17.57868699 55.54494032 19.83764648 55.50170898 C23.08207307 55.44116535 26.32542483 55.41272068 29.5703125 55.390625 C31.08918816 55.35191536 31.08918816 55.35191536 32.63874817 55.31242371 C35.23566433 55.3113812 37.60198652 55.35087437 40.14453125 55.87890625 C43.47793072 59.50583651 43.50520456 62.68961725 43.39453125 67.50390625 C43.3790625 68.63054687 43.36359375 69.7571875 43.34765625 70.91796875 C43.14453125 73.87890625 43.14453125 73.87890625 42.14453125 76.87890625 C41.48453125 76.87890625 40.82453125 76.87890625 40.14453125 76.87890625 C40.14453125 77.53890625 40.14453125 78.19890625 40.14453125 78.87890625 C24.63453125 78.87890625 9.12453125 78.87890625 -6.85546875 78.87890625 C-6.8090625 82.81441406 -6.76265625 86.74992188 -6.71484375 90.8046875 C-6.6836679 94.60732737 -6.65936874 98.40995312 -6.63574219 102.21264648 C-6.61560027 104.8598465 -6.5882852 107.50700188 -6.55371094 110.15405273 C-6.50530824 113.9543762 -6.48252545 117.75411256 -6.46484375 121.5546875 C-6.44419861 122.74226151 -6.42355347 123.92983551 -6.40228271 125.15339661 C-6.40198059 126.25431137 -6.40167847 127.35522614 -6.40136719 128.48950195 C-6.39248474 129.45990921 -6.38360229 130.43031647 -6.37445068 131.43013 C-6.85546875 133.87890625 -6.85546875 133.87890625 -8.67462158 135.70231628 C-11.85970333 137.42070136 -14.34313765 137.0832969 -17.91796875 136.81640625 C-19.14644531 136.74292969 -20.37492187 136.66945313 -21.640625 136.59375 C-24.85546875 135.87890625 -24.85546875 135.87890625 -26.53300762 134.16674137 C-28.1275611 131.40819114 -28.23025924 129.73312268 -28.22969055 126.55870056 C-28.23670486 125.48052567 -28.24371918 124.40235077 -28.25094604 123.29150391 C-28.24330231 122.11370361 -28.23565857 120.93590332 -28.2277832 119.72241211 C-28.23143387 118.47818985 -28.23508453 117.23396759 -28.23884583 115.95204163 C-28.2455631 112.54289512 -28.23883794 109.13429434 -28.2255137 105.72520137 C-28.21419342 102.15782935 -28.21830709 98.59047137 -28.22026062 95.02308655 C-28.2211433 89.03349105 -28.21006775 83.04400879 -28.19165039 77.05444336 C-28.17047346 70.12772693 -28.16697508 63.20117628 -28.17321235 56.27443403 C-28.17890467 49.61196066 -28.17326254 42.94954571 -28.1620388 36.28708076 C-28.15739204 33.45101403 -28.15651928 30.61498301 -28.15862465 27.7789135 C-28.16085599 23.82121468 -28.14640692 19.86367392 -28.13012695 15.90600586 C-28.13384308 14.13626907 -28.13384308 14.13626907 -28.13763428 12.33078003 C-28.12700706 10.71774742 -28.12700706 10.71774742 -28.11616516 9.0721283 C-28.11308586 7.66819525 -28.11308586 7.66819525 -28.10994434 6.23589993 C-27.85546875 3.87890625 -27.85546875 3.87890625 -25.85546875 0.87890625 C-17.65109001 -1.15700116 -8.38679194 -0.17239903 0 0 Z " fill="#0B6208" transform="translate(144.85546875,508.12109375)"/>
<path d="M0 0 C1.89956703 0.00760597 1.89956703 0.00760597 3.83750916 0.0153656 C4.53699173 0.01142288 5.2364743 0.00748016 5.95715332 0.00341797 C8.26948134 -0.00329581 10.57983588 0.02587122 12.89195251 0.05613708 C14.49712745 0.06038664 16.10230853 0.0627157 17.70748901 0.0632019 C21.07109941 0.06936949 24.43404441 0.09208045 27.79747009 0.12767029 C32.11429798 0.17297982 36.43052348 0.18769781 40.74756718 0.1914072 C44.06152314 0.19583038 47.37535198 0.21112396 50.68925285 0.23028374 C52.28129974 0.23917804 53.87336024 0.24590215 55.46542549 0.25044441 C57.68734297 0.25946246 59.90870906 0.28182994 62.13047791 0.30833435 C63.39606033 0.31897415 64.66164276 0.32961395 65.96557617 0.34057617 C68.91929626 0.61473083 68.91929626 0.61473083 70.91929626 2.61473083 C71.16221619 4.5700531 71.16221619 4.5700531 71.14976501 6.93113708 C71.14783142 7.77740662 71.14589783 8.62367615 71.14390564 9.49559021 C71.13165955 10.38053162 71.11941345 11.26547302 71.10679626 12.17723083 C71.10582947 13.51044373 71.10582947 13.51044373 71.10484314 14.87059021 C71.05950724 21.47451986 71.05950724 21.47451986 69.91929626 22.61473083 C68.20064218 22.70832273 66.47813883 22.73217695 64.75694275 22.72825623 C63.65587692 22.72818069 62.5548111 22.72810516 61.42037964 22.72802734 C60.22248306 22.72286606 59.02458649 22.71770477 57.79039001 22.71238708 C56.57102249 22.71097214 55.35165497 22.70955719 54.09533691 22.70809937 C50.18246557 22.7024805 46.26965046 22.6899248 42.35679626 22.67723083 C39.7116148 22.67221827 37.06643244 22.66765494 34.42124939 22.66355896 C27.920559 22.65335379 21.41999093 22.63378204 14.91929626 22.61473083 C15.24929626 33.17473083 15.57929626 43.73473083 15.91929626 54.61473083 C20.73974548 54.67080505 20.73974548 54.67080505 25.65757751 54.72801208 C28.76531334 54.77420517 31.87292765 54.82544693 34.98057556 54.87718201 C37.14261001 54.91046406 39.30473204 54.93848569 41.46690369 54.96116638 C44.57250844 54.99465191 47.67730824 55.04696483 50.78257751 55.10301208 C51.75141373 55.10940201 52.72024994 55.11579193 53.71844482 55.12237549 C54.61915207 55.14216965 55.51985931 55.16196381 56.44786072 55.18235779 C57.24061905 55.19346085 58.03337738 55.2045639 58.85015869 55.21600342 C61.46513212 55.71991462 62.35634753 56.47976749 63.91929626 58.61473083 C64.21829241 61.35552883 64.33835899 63.81789411 64.29429626 66.55223083 C64.30589783 67.26830505 64.31749939 67.98437927 64.32945251 68.72215271 C64.30543774 73.04080941 63.96216232 75.51739742 60.91929626 78.61473083 C58.81219482 79.0957489 58.81219482 79.0957489 56.35606384 79.0688324 C55.43533585 79.06853027 54.51460785 79.06822815 53.565979 79.06791687 C52.07991402 79.03694916 52.07991402 79.03694916 50.56382751 79.00535583 C49.54705429 78.99969604 48.53028107 78.99403625 47.48269653 78.98820496 C44.23191954 78.96579603 40.98224067 78.91559025 37.73179626 78.86473083 C35.52933821 78.84467172 33.3268629 78.82641993 31.12437439 78.81004333 C25.72230636 78.76591664 20.32087975 78.69895973 14.91929626 78.61473083 C14.92817871 79.2823645 14.93706116 79.94999817 14.94621277 80.63786316 C15.034641 87.58058621 15.09501203 94.52314955 15.13902283 101.46629333 C15.15915002 104.0581563 15.18645442 106.64997379 15.22105408 109.24168396 C15.26952128 112.96510532 15.29225443 116.68792683 15.30992126 120.41160583 C15.33056641 121.57214478 15.35121155 122.73268372 15.3724823 123.9283905 C15.37278442 125.00920898 15.37308655 126.09002747 15.37339783 127.20359802 C15.38228027 128.15401978 15.39116272 129.10444153 15.40031433 130.08366394 C14.77225837 133.38842892 13.54067023 134.56979779 10.91929626 136.61473083 C7.79039001 137.07566833 7.79039001 137.07566833 4.35679626 136.98973083 C3.2211322 136.97684021 2.08546814 136.96394958 0.91539001 136.95066833 C-2.08070374 136.61473083 -2.08070374 136.61473083 -5.08070374 134.61473083 C-6.07907393 131.61962024 -6.21102858 129.63284128 -6.22114563 126.50416565 C-6.22685577 125.44708405 -6.23256592 124.39000244 -6.2384491 123.30088806 C-6.23956696 122.14133606 -6.24068481 120.98178406 -6.24183655 119.78709412 C-6.24680145 118.56573761 -6.25176636 117.3443811 -6.25688171 116.08601379 C-6.26899082 112.73470695 -6.27644849 109.3834625 -6.28089237 106.03214121 C-6.28382453 103.93804435 -6.28792959 101.84395296 -6.29239655 99.74985886 C-6.30606812 93.19686284 -6.31573669 86.64387931 -6.31959844 80.09087002 C-6.32407983 72.52816369 -6.34163275 64.96563804 -6.37059903 57.40298665 C-6.39221712 51.55575888 -6.40230277 45.70858196 -6.40363955 39.86131465 C-6.40468741 36.3695963 -6.41059102 32.87804787 -6.42845917 29.38637161 C-6.44800457 25.49124064 -6.44365035 21.59633548 -6.43714905 17.70115662 C-6.44636383 16.54565308 -6.45557861 15.39014954 -6.46507263 14.19963074 C-6.45950348 13.13690948 -6.45393433 12.07418823 -6.44819641 10.97926331 C-6.44966297 10.0586014 -6.45112953 9.13793949 -6.45264053 8.18937874 C-5.80313365 3.69331501 -4.57364411 0.91263565 0 0 Z " fill="#0B6208" transform="translate(534.0807037353516,508.38526916503906)"/>
<path d="M0 0 C1.26637802 0.00285004 2.53275604 0.00570007 3.83750916 0.00863647 C4.88673302 0.00294144 4.88673302 0.00294144 5.95715332 -0.00286865 C8.26920921 -0.01027828 10.58000836 0.01110996 12.89195251 0.03353882 C14.49712984 0.03592287 16.10231 0.03682865 17.70748901 0.03631592 C21.0709938 0.03944447 24.43407248 0.05601501 27.79747009 0.08285522 C32.11428562 0.11686273 36.43063338 0.1244831 40.74756718 0.12296486 C44.06150804 0.12350799 47.37534612 0.13446546 50.68925285 0.14896774 C52.28130248 0.15534279 53.87336378 0.15927629 55.46542549 0.16075516 C57.68731265 0.16507925 59.9086981 0.18255934 62.13047791 0.20394897 C64.02885155 0.21538437 64.02885155 0.21538437 65.96557617 0.22705078 C68.91929626 0.49447632 68.91929626 0.49447632 70.91929626 2.49447632 C71.16221619 4.44979858 71.16221619 4.44979858 71.14976501 6.81088257 C71.14783142 7.6571521 71.14589783 8.50342163 71.14390564 9.37533569 C71.13165955 10.2602771 71.11941345 11.14521851 71.10679626 12.05697632 C71.10582947 13.39018921 71.10582947 13.39018921 71.10484314 14.75033569 C71.05950724 21.35426534 71.05950724 21.35426534 69.91929626 22.49447632 C68.20064218 22.58806821 66.47813883 22.61192243 64.75694275 22.60800171 C63.65587692 22.60792618 62.5548111 22.60785065 61.42037964 22.60777283 C60.22248306 22.60261154 59.02458649 22.59745026 57.79039001 22.59213257 C56.57102249 22.59071762 55.35165497 22.58930267 54.09533691 22.58784485 C50.18246557 22.58222599 46.26965046 22.56967028 42.35679626 22.55697632 C39.7116148 22.55196375 37.06643244 22.54740042 34.42124939 22.54330444 C27.920559 22.53309928 21.41999093 22.51352752 14.91929626 22.49447632 C14.91929626 33.38447632 14.91929626 44.27447632 14.91929626 55.49447632 C19.84802673 55.44226929 19.84802673 55.44226929 24.87632751 55.38900757 C28.05348339 55.36562132 31.23062972 55.3473994 34.40782166 55.3296814 C36.61847719 55.31458107 38.8291027 55.29409923 41.03965759 55.26815796 C44.21445619 55.23182977 47.38885924 55.21476248 50.56382751 55.20150757 C51.55453751 55.18602371 52.5452475 55.17053986 53.565979 55.15458679 C54.486707 55.1543602 55.407435 55.15413361 56.35606384 55.15390015 C57.57184868 55.14390739 57.57184868 55.14390739 58.81219482 55.13371277 C61.47394696 55.58943983 62.34358667 56.32482825 63.91929626 58.49447632 C64.21829241 61.23527432 64.33835899 63.69763959 64.29429626 66.43197632 C64.30589783 67.14805054 64.31749939 67.86412476 64.32945251 68.60189819 C64.30543774 72.9205549 63.96216232 75.3971429 60.91929626 78.49447632 C58.81219482 78.97549438 58.81219482 78.97549438 56.35606384 78.94857788 C55.43533585 78.94827576 54.51460785 78.94797363 53.565979 78.94766235 C52.07991402 78.91669464 52.07991402 78.91669464 50.56382751 78.88510132 C49.54705429 78.87944153 48.53028107 78.87378174 47.48269653 78.86795044 C44.23191954 78.84554151 40.98224067 78.79533573 37.73179626 78.74447632 C35.52933821 78.72441721 33.3268629 78.70616542 31.12437439 78.68978882 C25.72230636 78.64566212 20.32087975 78.57870521 14.91929626 78.49447632 C14.92373749 79.14958191 14.92817871 79.8046875 14.93275452 80.47964478 C14.97697194 87.29267192 15.00715614 94.10565836 15.02915955 100.91879272 C15.03922242 103.46210384 15.052874 106.00540337 15.07017517 108.54867554 C15.09441054 112.2025132 15.10577653 115.856198 15.11460876 119.51010132 C15.12493134 120.64876648 15.13525391 121.78743164 15.14588928 122.96060181 C15.14604034 124.02139954 15.14619141 125.08219727 15.14634705 126.17514038 C15.15078827 127.10779724 15.15522949 128.0404541 15.1598053 129.00137329 C14.90391706 131.65389625 14.3533707 133.26096222 12.91929626 135.49447632 C10.08542111 136.91141389 7.63900254 136.66437762 4.48179626 136.68197632 C3.32808533 136.69615601 2.17437439 136.71033569 0.98570251 136.72494507 C-2.08070374 136.49447632 -2.08070374 136.49447632 -5.08070374 134.49447632 C-6.08315124 131.48713382 -6.21107723 129.48220591 -6.22114563 126.33921814 C-6.22685577 125.27227722 -6.23256592 124.2053363 -6.2384491 123.10606384 C-6.23956696 121.93559006 -6.24068481 120.76511627 -6.24183655 119.55917358 C-6.24680145 118.32645721 -6.25176636 117.09374084 -6.25688171 115.82366943 C-6.26899052 112.44143913 -6.27644822 109.05927065 -6.28089237 105.67702603 C-6.28382417 103.56417591 -6.28792912 101.45133121 -6.29239655 99.33848381 C-6.30606704 92.7283587 -6.31573654 86.11824598 -6.31959844 79.50810772 C-6.32408174 71.87634153 -6.341644 64.24475421 -6.37059903 56.61304241 C-6.39220397 50.71402607 -6.40230204 44.8150601 -6.40363955 38.9160046 C-6.40468821 35.39246076 -6.410609 31.86908517 -6.42845917 28.34558296 C-6.44797641 24.41672085 -6.44365562 20.48808309 -6.43714905 16.55917358 C-6.44636383 15.39072403 -6.45557861 14.22227448 -6.46507263 13.01841736 C-6.45950348 11.94865662 -6.45393433 10.87889587 -6.44819641 9.77671814 C-6.44966297 8.8477601 -6.45112953 7.91880205 -6.45264053 6.96169376 C-5.79981521 2.63122142 -4.33262277 0.69541882 0 0 Z " fill="#0B6208" transform="translate(338.08070373535156,508.5055236816406)"/>
<path d="M0 0 C1.93746094 0.00966797 1.93746094 0.00966797 3.9140625 0.01953125 C6.64549093 0.15209493 8.79276318 0.39750061 11.375 1.1875 C13.04019519 1.52810811 14.70657466 1.86308396 16.375 2.1875 C16.375 2.8475 16.375 3.5075 16.375 4.1875 C17.1175 4.435 17.86 4.6825 18.625 4.9375 C21.60523087 6.29215039 23.27419252 7.6976541 25.375 10.1875 C25.375 10.8475 25.375 11.5075 25.375 12.1875 C26.303125 12.5278125 26.303125 12.5278125 27.25 12.875 C30.06834901 14.61574498 30.38063447 16.0623512 31.375 19.1875 C31.74625 20.198125 32.1175 21.20875 32.5 22.25 C33.375 25.1875 33.375 25.1875 33.375 29.1875 C34.035 29.5175 34.695 29.8475 35.375 30.1875 C36.34944501 33.70667401 36.53719523 37.11117427 36.5625 40.75 C36.57667969 41.67941406 36.59085938 42.60882812 36.60546875 43.56640625 C36.36518745 46.29909699 35.62966692 47.79222678 34.375 50.1875 C34.375 51.38375 34.375 52.58 34.375 53.8125 C34.375 54.92625 34.375 56.04 34.375 57.1875 C33.385 58.1775 33.385 58.1775 32.375 59.1875 C31.97735737 61.17571313 31.63724651 63.17694339 31.375 65.1875 C30.385 65.1875 29.395 65.1875 28.375 65.1875 C28.2925 65.93 28.21 66.6725 28.125 67.4375 C27.22690201 70.73052595 25.99083926 72.04726788 23.375 74.1875 C22.715 74.1875 22.055 74.1875 21.375 74.1875 C21.045 74.8475 20.715 75.5075 20.375 76.1875 C18.40083732 77.23758653 16.39917134 78.23737876 14.375 79.1875 C13.385 79.6825 13.385 79.6825 12.375 80.1875 C11.385 79.6925 11.385 79.6925 10.375 79.1875 C10.375 79.8475 10.375 80.5075 10.375 81.1875 C3.775 81.1875 -2.825 81.1875 -9.625 81.1875 C-9.625 80.5275 -9.625 79.8675 -9.625 79.1875 C-10.2025 79.414375 -10.78 79.64125 -11.375 79.875 C-13.625 80.1875 -13.625 80.1875 -15.5 78.9375 C-16.20125 78.36 -16.9025 77.7825 -17.625 77.1875 C-19.0171875 76.630625 -19.0171875 76.630625 -20.4375 76.0625 C-24.96851313 73.39719816 -27.92076111 69.67221574 -30.625 65.1875 C-31.32421875 62.3984375 -31.32421875 62.3984375 -31.625 60.1875 C-32.285 60.1875 -32.945 60.1875 -33.625 60.1875 C-33.769375 59.053125 -33.91375 57.91875 -34.0625 56.75 C-34.23671478 53.37972799 -34.23671478 53.37972799 -35.625 52.1875 C-35.71200342 50.55277118 -35.73201063 48.91435945 -35.72265625 47.27734375 C-35.71943359 46.28798828 -35.71621094 45.29863281 -35.71289062 44.27929688 C-35.70451172 43.23837891 -35.69613281 42.19746094 -35.6875 41.125 C-35.68298828 40.08021484 -35.67847656 39.03542969 -35.67382812 37.95898438 C-35.66199913 35.3684334 -35.64551689 32.77799441 -35.625 30.1875 C-34.965 30.1875 -34.305 30.1875 -33.625 30.1875 C-33.686875 29.1975 -33.74875 28.2075 -33.8125 27.1875 C-33.82169363 22.68262291 -32.45936565 19.27954644 -30.625 15.1875 C-29.965 14.8575 -29.305 14.5275 -28.625 14.1875 C-28.191875 12.7025 -28.191875 12.7025 -27.75 11.1875 C-27.37875 10.1975 -27.0075 9.2075 -26.625 8.1875 C-24.75 7.4375 -24.75 7.4375 -22.625 7.1875 C-20.37020688 6.16920633 -18.34393358 5.00998437 -16.25 3.6875 C-10.85451752 0.60436716 -6.1779382 -0.06809351 0 0 Z " fill="#0B6108" transform="translate(657.625,712.8125)"/>
<path d="M0 0 C17.32377352 -0.0233285 34.64754216 -0.04097893 51.97132778 -0.05181217 C60.01450054 -0.05697523 68.05766357 -0.06401812 76.10083008 -0.07543945 C83.1087296 -0.08538598 90.11662208 -0.09185335 97.12452847 -0.09408849 C100.83743192 -0.09539566 104.5503152 -0.09848184 108.2632122 -0.10573006 C112.40131411 -0.11374332 116.53938061 -0.11399116 120.67749023 -0.11352539 C121.91754318 -0.11712067 123.15759613 -0.12071594 124.43522644 -0.12442017 C125.55568359 -0.1230455 126.67614075 -0.12167084 127.83055115 -0.12025452 C128.81041709 -0.12117631 129.79028303 -0.1220981 130.79984188 -0.12304783 C133 0 133 0 134 1 C135.92478813 1.15806531 137.8549921 1.251135 139.78515625 1.31640625 C140.95498047 1.35830078 142.12480469 1.40019531 143.33007812 1.44335938 C145.17762695 1.50233398 145.17762695 1.50233398 147.0625 1.5625 C148.29806641 1.60568359 149.53363281 1.64886719 150.80664062 1.69335938 C153.87097335 1.79984198 156.93539073 1.90185424 160 2 C160 2.66 160 3.32 160 4 C161.28777344 3.98839844 162.57554687 3.97679687 163.90234375 3.96484375 C165.58072772 3.9554673 167.25911326 3.94636695 168.9375 3.9375 C170.21270508 3.92493164 170.21270508 3.92493164 171.51367188 3.91210938 C172.32255859 3.90888672 173.13144531 3.90566406 173.96484375 3.90234375 C175.08814087 3.89448853 175.08814087 3.89448853 176.23413086 3.88647461 C178 4 178 4 179 5 C180.6880039 4.99406677 182.37592105 4.94459748 184.0625 4.875 C188.47447753 4.82986468 191.49664984 5.40684422 195.5703125 7.20703125 C199.62983746 8.53192444 203.86936556 8.84463027 208.10229492 9.26513672 C212.63129523 9.73615718 216.67621427 10.64495142 221 12 C221 12.66 221 13.32 221 14 C221.66 14 222.32 14 223 14 C223 14.66 223 15.32 223 16 C223.66 16.33 224.32 16.66 225 17 C224 18 224 18 221.85601228 18.11778647 C220.42123902 18.11266024 220.42123902 18.11266024 218.95748043 18.10743046 C217.85821978 18.10593811 216.75895912 18.10444576 215.62638754 18.10290819 C213.79228373 18.09270251 213.79228373 18.09270251 211.92112732 18.08229065 C210.6339539 18.07906152 209.34678048 18.07583239 208.02060181 18.07250541 C204.43133988 18.06336546 200.84212768 18.04793132 197.25289261 18.03152263 C193.38853653 18.01494035 189.52416397 18.00411957 185.65979004 17.99261475 C178.95903028 17.97186963 172.25829199 17.94743826 165.55755424 17.92053413 C155.86929948 17.88164012 146.18103196 17.8482574 136.49275232 17.81623887 C120.77583342 17.76414593 105.05893397 17.70756846 89.34204102 17.64819336 C74.07056435 17.59051051 58.79908243 17.53492568 43.52758789 17.48217773 C42.11662657 17.47730316 42.11662657 17.47730316 40.67716097 17.4723301 C35.95844928 17.45604093 31.23973744 17.43979316 26.52102554 17.42356598 C-12.65267367 17.28879797 -51.82634399 17.14676153 -91 17 C-91 15.68 -91 14.36 -91 13 C-89.68 13.33 -88.36 13.66 -87 14 C-87 13.34 -87 12.68 -87 12 C-85.35 12 -83.7 12 -82 12 C-82 11.34 -82 10.68 -82 10 C-74.71601592 8.33119097 -67.55064846 6.74595091 -60.0859375 6.2109375 C-58.02616012 6.05811411 -58.02616012 6.05811411 -56.18383789 5.51806641 C-53.76844701 4.94506926 -51.44638523 4.70551332 -48.97265625 4.5 C-47.53696289 4.37625 -47.53696289 4.37625 -46.07226562 4.25 C-45.07904297 4.1675 -44.08582031 4.085 -43.0625 4 C-41.09483459 3.83592106 -39.12737613 3.66933702 -37.16015625 3.5 C-36.29011963 3.4278125 -35.42008301 3.355625 -34.52368164 3.28125 C-32.0029705 3.04388575 -32.0029705 3.04388575 -29.57714844 2.47485352 C-26.54003464 1.9152489 -23.69344075 1.88770881 -20.60546875 1.90234375 C-18.80239258 1.90717773 -18.80239258 1.90717773 -16.96289062 1.91210938 C-15.71701172 1.92048828 -14.47113281 1.92886719 -13.1875 1.9375 C-11.92228516 1.94201172 -10.65707031 1.94652344 -9.35351562 1.95117188 C-6.2356289 1.96293749 -3.11783867 1.97937728 0 2 C0 1.34 0 0.68 0 0 Z M1 1 C1 1.33 1 1.66 1 2 C3.64 2 6.28 2 9 2 C9 1.67 9 1.34 9 1 C6.36 1 3.72 1 1 1 Z M125 1 C125 1.33 125 1.66 125 2 C127.64 2 130.28 2 133 2 C133 1.67 133 1.34 133 1 C130.36 1 127.72 1 125 1 Z M-26 3 C-26 3.33 -26 3.66 -26 4 C-24.02 4 -22.04 4 -20 4 C-20 3.67 -20 3.34 -20 3 C-21.98 3 -23.96 3 -26 3 Z M154 3 C154 3.33 154 3.66 154 4 C155.65 4 157.3 4 159 4 C159 3.67 159 3.34 159 3 C157.35 3 155.7 3 154 3 Z M-44 5 C-40 6 -40 6 -40 6 Z M214 16 C214 16.33 214 16.66 214 17 C216.64 17 219.28 17 222 17 C222 16.67 222 16.34 222 16 C219.36 16 216.72 16 214 16 Z " fill="#0B6108" transform="translate(968,742)"/>
<path d="M0 0 C1.34389128 -0.00132534 2.68794339 0.01893422 4.03125 0.05859375 C4.70800781 0.05150391 5.38476562 0.04441406 6.08203125 0.03710938 C10.97236714 0.09980599 10.97236714 0.09980599 13.22381687 1.69624424 C14.99400273 4.13313228 14.91120276 5.72740456 14.91893005 8.72727966 C14.92883469 9.81104889 14.93873932 10.89481812 14.94894409 12.01142883 C14.94219162 13.79519173 14.94219162 13.79519173 14.93530273 15.61499023 C14.94216599 16.86721375 14.94902924 18.11943726 14.95610046 19.40960693 C14.97128388 22.84572137 14.97285752 26.28129417 14.96715808 29.71740222 C14.96407071 32.58526328 14.97015366 35.45307505 14.97619683 38.32092911 C14.99025133 45.08647154 14.98867331 51.85188772 14.97729492 58.61743164 C14.96581408 65.59816913 14.97988636 72.57852243 15.0066914 79.55920929 C15.0288406 85.55166692 15.03548753 91.54400389 15.02961498 97.53649956 C15.02624211 101.11595835 15.02868191 104.69517087 15.04586601 108.27459526 C15.06419018 112.26581791 15.05015595 116.25656731 15.03295898 120.24780273 C15.04262695 121.43495377 15.05229492 122.6221048 15.06225586 123.8452301 C15.05242172 124.93181915 15.04258759 126.0184082 15.03245544 127.13792419 C15.03224616 128.08163093 15.03203688 129.02533766 15.03182125 129.99764156 C14.37688032 133.266584 13.12275213 134.46042113 10.53125 136.49609375 C7.4375 137.02734375 7.4375 137.02734375 4.03125 136.99609375 C2.9071875 137.00640625 1.783125 137.01671875 0.625 137.02734375 C-3.14339408 136.38024578 -4.10991684 135.44647264 -6.46875 132.49609375 C-6.96932125 130.01605225 -6.96932125 130.01605225 -6.96995544 127.18261719 C-6.97978958 126.10588745 -6.98962372 125.02915771 -6.99975586 123.9197998 C-6.99008789 122.74357056 -6.98041992 121.56734131 -6.97045898 120.35546875 C-6.97586197 119.11285278 -6.98126495 117.87023682 -6.98683167 116.58996582 C-6.99719715 113.18473184 -6.98961552 109.78046921 -6.97312045 106.37532043 C-6.95926559 102.81108202 -6.96573052 99.24687281 -6.96925354 95.68261719 C-6.97195533 89.69718286 -6.95848291 83.7119491 -6.93530273 77.7265625 C-6.90869303 70.80776457 -6.90694592 63.88930199 -6.9186911 56.97047043 C-6.92947244 50.3133185 -6.92327906 43.65628781 -6.90913582 36.99914551 C-6.90337906 34.16667819 -6.90345623 31.33429967 -6.90820122 28.50183105 C-6.913862 24.54666466 -6.89464773 20.59183347 -6.87280273 16.63671875 C-6.87730438 15.4604895 -6.88180603 14.28426025 -6.88644409 13.0723877 C-6.87653946 11.99565796 -6.86663483 10.91892822 -6.85643005 9.80957031 C-6.85400016 8.87453674 -6.85157026 7.93950317 -6.84906673 6.97613525 C-6.1393265 2.34792649 -4.60873127 0.65913161 0 0 Z " fill="#0B6208" transform="translate(945.46875,508.50390625)"/>
<path d="M0 0 C5.45458765 0.09539025 10.41198844 0.82704728 14.4765625 4.7265625 C20.87244692 12.9177829 20.73902451 23.31345351 19.9375 33.25 C19.2775 34.24 18.6175 35.23 17.9375 36.25 C17.53985737 38.23821313 17.21321139 40.24124558 16.9375 42.25 C16.6590625 43.5803125 16.6590625 43.5803125 16.375 44.9375 C15.7493206 49.67478689 15.47817514 54.48547774 15.9375 59.25 C16.5975 59.91 17.2575 60.57 17.9375 61.25 C18.20741906 63.93839385 18.02487357 66.54141936 17.9375 69.25 C18.9275 69.745 18.9275 69.745 19.9375 70.25 C19.9375 72.56 19.9375 74.87 19.9375 77.25 C18.9475 77.58 17.9575 77.91 16.9375 78.25 C16.1021875 77.21552734 16.1021875 77.21552734 15.25 76.16015625 C9.51357344 69.09621206 3.75235948 62.06485948 -2.6875 55.625 C-5.64684038 52.66565962 -8.58453577 49.63059038 -11.0625 46.25 C-11.0625 45.59 -11.0625 44.93 -11.0625 44.25 C-12.3825 43.92 -13.7025 43.59 -15.0625 43.25 C-15.0625 44.9 -15.0625 46.55 -15.0625 48.25 C-15.7225 48.25 -16.3825 48.25 -17.0625 48.25 C-16.876875 49.36375 -16.69125 50.4775 -16.5 51.625 C-16.0625 55.25 -16.0625 55.25 -17.0625 57.25 C-17.7225 57.25 -18.3825 57.25 -19.0625 57.25 C-18.85625 57.8275 -18.65 58.405 -18.4375 59 C-18.0625 61.25 -18.0625 61.25 -19 63 C-20.61639504 66.4229542 -20.18785919 69.48922443 -20.0625 73.25 C-20.7225 73.25 -21.3825 73.25 -22.0625 73.25 C-22.3925 74.24 -22.7225 75.23 -23.0625 76.25 C-24.3825 76.25 -25.7025 76.25 -27.0625 76.25 C-28.46195053 73.45109894 -28.18974525 71.14295935 -28.19189453 68.01196289 C-28.19504669 66.7004274 -28.19819885 65.38889191 -28.20144653 64.03761292 C-28.19965651 62.59929369 -28.1976055 61.16097476 -28.1953125 59.72265625 C-28.1959859 58.25296513 -28.19695624 56.78327411 -28.19821167 55.31358337 C-28.19968738 52.23093609 -28.19753844 49.14831775 -28.19287109 46.06567383 C-28.18717888 42.11334708 -28.19045038 38.16108832 -28.19644356 34.20876408 C-28.20005684 31.17275989 -28.19890696 28.13677181 -28.19631577 25.10076714 C-28.19564836 23.64350819 -28.19646841 22.18624779 -28.19879532 20.72899055 C-28.2013338 18.69180453 -28.19677898 16.65461339 -28.19189453 14.61743164 C-28.19109894 13.45764297 -28.19030334 12.29785431 -28.18948364 11.10292053 C-28.0625 8.25 -28.0625 8.25 -27.0625 5.25 C-24.7525 5.25 -22.4425 5.25 -20.0625 5.25 C-20.0625 4.59 -20.0625 3.93 -20.0625 3.25 C-18.45568359 3.05083984 -18.45568359 3.05083984 -16.81640625 2.84765625 C-15.41924231 2.6694944 -14.02210841 2.49109681 -12.625 2.3125 C-11.91794922 2.22548828 -11.21089844 2.13847656 -10.48242188 2.04882812 C-6.59469287 1.54658562 -3.83027292 0.07883924 0 0 Z M-3.0625 1.25 C-3.0625 1.58 -3.0625 1.91 -3.0625 2.25 C-0.4225 2.25 2.2175 2.25 4.9375 2.25 C4.9375 1.92 4.9375 1.59 4.9375 1.25 C2.2975 1.25 -0.3425 1.25 -3.0625 1.25 Z " fill="#0B6108" transform="translate(741.0625,712.75)"/>
<path d="M0 0 C13.56517653 -0.43064052 22.02562207 3.36346466 32.6875 11.8125 C33.450625 12.534375 34.21375 13.25625 35 14 C35 14.66 35 15.32 35 16 C31.37 16.33 27.74 16.66 24 17 C24 16.34 24 15.68 24 15 C22.75347656 15.17402344 21.50695312 15.34804688 20.22265625 15.52734375 C14.58706712 16.15352032 9.08637604 15.88774965 3.4375 15.5625 C2.42880859 15.51029297 1.42011719 15.45808594 0.38085938 15.40429688 C-2.07984916 15.27601349 -4.54000054 15.14112915 -7 15 C-6.49194145 20.75385507 -6.49194145 20.75385507 -3 25 C-3 25.66 -3 26.32 -3 27 C-2.01 27.33 -1.02 27.66 0 28 C0 28.66 0 29.32 0 30 C0.67546875 30.26039063 1.3509375 30.52078125 2.046875 30.7890625 C6.18801877 32.48715055 10.21861415 34.40928346 14.25952148 36.33032227 C17.82065222 38.0147054 21.3780313 39.5377785 25.0625 40.9375 C29.84979875 43.03703367 32.482657 46.50862543 35 51 C35.875 53.4375 35.875 53.4375 36 56 C36.05607422 57.07121094 36.05607422 57.07121094 36.11328125 58.1640625 C36.24443933 62.40253935 36.21998603 65.27872846 34 69 C33 70 32 71 31 72 C30.505 73.485 30.505 73.485 30 75 C29.34 75 28.68 75 28 75 C28 75.66 28 76.32 28 77 C22.64285714 82 22.64285714 82 19 82 C19 82.99 19 83.98 19 85 C12.18447984 86.67532339 3.56418801 86.65635447 -2.8125 83.4375 C-3.534375 82.963125 -4.25625 82.48875 -5 82 C-5 81.34 -5 80.68 -5 80 C-5.99 80 -6.98 80 -8 80 C-8.66 79.34 -9.32 78.68 -10 78 C-10.94875 77.38125 -11.8975 76.7625 -12.875 76.125 C-15.62756331 74.25325695 -17.8267881 72.5075522 -20 70 C-20 69.34 -20 68.68 -20 68 C-20.66 67.67 -21.32 67.34 -22 67 C-19.19462697 66.06487566 -17.51834636 65.87817093 -14.62036133 65.88647461 C-13.29933159 65.88658791 -13.29933159 65.88658791 -11.95161438 65.88670349 C-11.00465195 65.89186478 -10.05768951 65.89702606 -9.08203125 65.90234375 C-8.10965012 65.9037587 -7.13726898 65.90517365 -6.13542175 65.90663147 C-3.02774996 65.91223183 0.07984996 65.92478438 3.1875 65.9375 C5.29361875 65.94251495 7.39973863 65.94707787 9.50585938 65.95117188 C14.67060064 65.96220138 19.83528813 65.97946625 25 66 C24.23925157 64.37025436 23.46601567 62.74633352 22.6875 61.125 C22.25824219 60.22007812 21.82898438 59.31515625 21.38671875 58.3828125 C20.0800612 55.73550524 20.0800612 55.73550524 17 54 C17 53.34 17 52.68 17 52 C14.69 51.34 12.38 50.68 10 50 C10 49.34 10 48.68 10 48 C9.443125 48.226875 8.88625 48.45375 8.3125 48.6875 C5.06590348 49.12622926 3.69262057 47.75020337 1 46 C-1.19130534 45.30420546 -1.19130534 45.30420546 -3 45 C-3 44.34 -3 43.68 -3 43 C-3.99 43 -4.98 43 -6 43 C-6 42.34 -6 41.68 -6 41 C-7.485 41.495 -7.485 41.495 -9 42 C-11.2265625 40.63671875 -11.2265625 40.63671875 -13.625 38.6875 C-14.42164063 38.05199219 -15.21828125 37.41648437 -16.0390625 36.76171875 C-18 35 -18 35 -19 33 C-19.07033769 31.12620395 -19.0843022 29.24998898 -19.0625 27.375 C-19.05347656 26.37210938 -19.04445313 25.36921875 -19.03515625 24.3359375 C-19.01775391 23.17964844 -19.01775391 23.17964844 -19 22 C-18.34 22 -17.68 22 -17 22 C-16.87625 21.0925 -16.7525 20.185 -16.625 19.25 C-16.07500738 16.39003836 -15.53636103 14.44010282 -14 12 C-13.34 11.67 -12.68 11.34 -12 11 C-11.87625 10.360625 -11.7525 9.72125 -11.625 9.0625 C-11 7 -11 7 -9.0625 5.875 C-8.381875 5.58625 -7.70125 5.2975 -7 5 C-6.34 4.34 -5.68 3.68 -5 3 C-2.375 2.375 -2.375 2.375 0 2 C0 1.34 0 0.68 0 0 Z " fill="#0B6109" transform="translate(502,711)"/>
<path d="M0 0 C2.55395487 -0.26711404 4.86274374 -0.34849029 7.4140625 -0.29296875 C8.50852188 -0.28660149 8.50852188 -0.28660149 9.62509155 -0.28010559 C11.95876759 -0.26329353 14.2915844 -0.22563868 16.625 -0.1875 C18.20571671 -0.17245634 19.78644693 -0.15876738 21.3671875 -0.14648438 C25.24512344 -0.11338201 29.12241598 -0.06158404 33 0 C32.01 0.66 31.02 1.32 30 2 C31.32 2.66 32.64 3.32 34 4 C31 6 31 6 28 6 C27.67 6.99 27.34 7.98 27 9 C26.34 9.66 25.68 10.32 25 11 C23.68 11 22.36 11 21 11 C20.835 11.721875 20.67 12.44375 20.5 13.1875 C18.56251486 16.82028464 16.22449125 17.9503224 12.6796875 19.88671875 C12.12539063 20.25410156 11.57109375 20.62148438 11 21 C11 21.66 11 22.32 11 23 C15.80068381 26.75372617 21.53745394 29.36627244 27 32 C27 32.66 27 33.32 27 34 C28.485 34.495 28.485 34.495 30 35 C30 35.66 30 36.32 30 37 C30.66 37 31.32 37 32 37 C31.67 37.99 31.34 38.98 31 40 C30.01 39.505 30.01 39.505 29 39 C29 39.66 29 40.32 29 41 C28.34 41 27.68 41 27 41 C26.67 41.66 26.34 42.32 26 43 C25.34 42.67 24.68 42.34 24 42 C23.67 42.99 23.34 43.98 23 45 C22.34 44.67 21.68 44.34 21 44 C21 44.66 21 45.32 21 46 C20.34 46 19.68 46 19 46 C18.67 46.66 18.34 47.32 18 48 C17.34 47.67 16.68 47.34 16 47 C16.33 47.99 16.66 48.98 17 50 C14.01758453 50.77321882 11.02419525 51.41196203 8 52 C8 52.99 8 53.98 8 55 C6.5 56.6875 6.5 56.6875 5 58 C7.20379579 62.22394193 8.00123044 63.6555967 12.625 65.25 C14.07978111 65.51990373 15.53860137 65.76859092 17 66 C18.6467414 66.32881793 20.29255444 66.66231289 21.9375 67 C24.47746091 67.51427338 27.00476494 68.00073251 29.56640625 68.39453125 C31.82290297 68.78208366 33.87077112 69.15669491 36 70 C37.5625 72.625 37.5625 72.625 38 75 C34.30841682 77.46105545 31.53376446 77.25575793 27.26953125 77.1953125 C26.51911057 77.1924826 25.76868988 77.18965271 24.99552917 77.18673706 C22.60102325 77.17555062 20.20689269 77.15044928 17.8125 77.125 C16.18815645 77.11496819 14.56380703 77.10584269 12.93945312 77.09765625 C8.959491 77.07561637 4.97980912 77.0410974 1 77 C1 76.34 1 75.68 1 75 C0.01 74.67 -0.98 74.34 -2 74 C-2.04630932 64.7945787 -2.08186203 55.58919741 -2.10362434 46.38368511 C-2.11406835 42.10934527 -2.12823877 37.83508504 -2.15087891 33.56079102 C-2.17258534 29.43703744 -2.18456398 25.31336051 -2.18975449 21.18955421 C-2.1934542 19.61505743 -2.2006787 18.04056491 -2.21146011 16.46610069 C-2.22594594 14.26335916 -2.22797918 12.06093568 -2.22705078 9.8581543 C-2.231492 8.60350876 -2.23593323 7.34886322 -2.24050903 6.05619812 C-2 3 -2 3 0 0 Z " fill="#0D620A" transform="translate(786,715)"/>
<path d="M0 0 C1.74991334 -0.02715383 3.49994945 -0.04646551 5.25 -0.0625 C6.71179687 -0.07990234 6.71179687 -0.07990234 8.203125 -0.09765625 C11 0 11 0 15 1 C15 4.3 15 7.6 15 11 C14.01 11.33 13.02 11.66 12 12 C9.3359375 10.234375 9.3359375 10.234375 6.375 7.75 C5.39273437 6.94046875 4.41046875 6.1309375 3.3984375 5.296875 C1 3 1 3 0 0 Z " fill="#0B6208" transform="translate(1024,653)"/>
<path d="M0 0 C5.94 0.99 5.94 0.99 12 2 C12 2.99 12 3.98 12 5 C9.35541621 6.32229189 7.32238699 6.09677194 4.375 6.0625 C3.37210938 6.05347656 2.36921875 6.04445313 1.3359375 6.03515625 C0.56507813 6.02355469 -0.20578125 6.01195312 -1 6 C-1.33 5.01 -1.66 4.02 -2 3 C-1.34 2.01 -0.68 1.02 0 0 Z " fill="#0B6208" transform="translate(594,654)"/>
<path d="M0 0 C10.56 0 21.12 0 32 0 C32 0.33 32 0.66 32 1 C21.44 1 10.88 1 0 1 C0 0.67 0 0.34 0 0 Z " fill="#0B6208" transform="translate(639,78)"/>
<path d="M0 0 C6.6 0 13.2 0 20 0 C20 0.33 20 0.66 20 1 C13.4 1 6.8 1 0 1 C0 0.67 0 0.34 0 0 Z " fill="#212429" transform="translate(646,305)"/>
<path d="M0 0 C0.66 0.33 1.32 0.66 2 1 C2 2.32 2 3.64 2 5 C0.0625 4.6875 0.0625 4.6875 -2 4 C-2.33 3.01 -2.66 2.02 -3 1 C-2.01 0.67 -1.02 0.34 0 0 Z " fill="#0B6208" transform="translate(935,654)"/>
<path d="M0 0 C2.97 0 5.94 0 9 0 C9 0.33 9 0.66 9 1 C6.03 1 3.06 1 0 1 C0 0.67 0 0.34 0 0 Z " fill="#212429" transform="translate(878,759)"/>
<path d="M0 0 C0.33 0 0.66 0 1 0 C1 2.31 1 4.62 1 7 C0.67 7 0.34 7 0 7 C0 4.69 0 2.38 0 0 Z " fill="#212429" transform="translate(732,135)"/>
<path d="M0 0 C0.33 0 0.66 0 1 0 C1 1.98 1 3.96 1 6 C0.67 6 0.34 6 0 6 C0 4.02 0 2.04 0 0 Z " fill="#212429" transform="translate(694,750)"/>
<path d="M0 0 C1.65 0 3.3 0 5 0 C5 0.33 5 0.66 5 1 C3.35 1 1.7 1 0 1 C0 0.67 0 0.34 0 0 Z " fill="#212429" transform="translate(533,728)"/>
<path d="" fill="#212429" transform="translate(0,0)"/>
<path d="" fill="#212429" transform="translate(0,0)"/>
<path d="M0 0 C3 1 3 1 3 1 Z " fill="#212429" transform="translate(498,726)"/>
<path d="M0 0 C3 1 3 1 3 1 Z " fill="#212429" transform="translate(675,307)"/>
<path d="" fill="#212429" transform="translate(0,0)"/>
<path d="" fill="#212429" transform="translate(0,0)"/>
<path d="" fill="#212429" transform="translate(0,0)"/>
<path d="" fill="#0B6208" transform="translate(0,0)"/>
<path d="M0 0 C2 1 2 1 2 1 Z " fill="#212429" transform="translate(1060,454)"/>
<path d="" fill="#212429" transform="translate(0,0)"/>
<path d="M0 0 C2 1 2 1 2 1 Z " fill="#548952" transform="translate(313,432)"/>
<path d="M0 0 C2 1 2 1 2 1 Z " fill="#212429" transform="translate(983,426)"/>
<path d="M0 0 C2 1 2 1 2 1 Z " fill="#212429" transform="translate(349,418)"/>
<path d="M0 0 C2 1 2 1 2 1 Z " fill="#212429" transform="translate(473,369)"/>
<path d="M0 0 C2 1 2 1 2 1 Z " fill="#212429" transform="translate(826,364)"/>
<path d="M0 0 C2 1 2 1 2 1 Z " fill="#212429" transform="translate(519,351)"/>
<path d="M0 0 C2 1 2 1 2 1 Z " fill="#212429" transform="translate(759,338)"/>
<path d="M0 0 C2 1 2 1 2 1 Z " fill="#212429" transform="translate(578,328)"/>
<path d="M0 0 C2 1 2 1 2 1 Z " fill="#212429" transform="translate(599,320)"/>
<path d="" fill="#548952" transform="translate(0,0)"/>
<path d="" fill="#0B6208" transform="translate(0,0)"/>
<path d="" fill="#212429" transform="translate(0,0)"/>
<path d="" fill="#212429" transform="translate(0,0)"/>
<path d="" fill="#212429" transform="translate(0,0)"/>
<path d="" fill="#0B6208" transform="translate(0,0)"/>
<path d="" fill="#9DB19D" transform="translate(0,0)"/>
<path d="" fill="#0B6208" transform="translate(0,0)"/>
<path d="" fill="#0B6208" transform="translate(0,0)"/>
<path d="" fill="#212429" transform="translate(0,0)"/>
<path d="" fill="#9DB19D" transform="translate(0,0)"/>
<path d="" fill="#212429" transform="translate(0,0)"/>
<path d="" fill="#212429" transform="translate(0,0)"/>
<path d="" fill="#212429" transform="translate(0,0)"/>
<path d="" fill="#9DB19D" transform="translate(0,0)"/>
<path d="" fill="#9DB19D" transform="translate(0,0)"/>
<path d="" fill="#9DB19D" transform="translate(0,0)"/>
<path d="" fill="#212429" transform="translate(0,0)"/>
<path d="" fill="#9DB19D" transform="translate(0,0)"/>
<path d="" fill="#9DB19D" transform="translate(0,0)"/>
<path d="" fill="#212429" transform="translate(0,0)"/>
<path d="" fill="#0B6208" transform="translate(0,0)"/>
<path d="" fill="#0B6208" transform="translate(0,0)"/>
<path d="" fill="#212429" transform="translate(0,0)"/>
<path d="" fill="#212429" transform="translate(0,0)"/>
<path d="" fill="#212429" transform="translate(0,0)"/>
<path d="" fill="#0B6208" transform="translate(0,0)"/>
<path d="" fill="#0B6208" transform="translate(0,0)"/>
<path d="" fill="#5C6E5F" transform="translate(0,0)"/>
<path d="" fill="#0B6208" transform="translate(0,0)"/>
<path d="" fill="#0B6208" transform="translate(0,0)"/>
<path d="" fill="#9DB19D" transform="translate(0,0)"/>
<path d="" fill="#9DB19D" transform="translate(0,0)"/>
<path d="" fill="#212429" transform="translate(0,0)"/>
<path d="" fill="#212429" transform="translate(0,0)"/>
<path d="" fill="#9DB19D" transform="translate(0,0)"/>
<path d="" fill="#212429" transform="translate(0,0)"/>
<path d="" fill="#9DB19D" transform="translate(0,0)"/>
<path d="" fill="#212429" transform="translate(0,0)"/>
<path d="" fill="#9DB19D" transform="translate(0,0)"/>
<path d="" fill="#9DB19D" transform="translate(0,0)"/>
<path d="" fill="#212429" transform="translate(0,0)"/>
<path d="" fill="#212429" transform="translate(0,0)"/>
<path d="" fill="#212429" transform="translate(0,0)"/>
<path d="" fill="#9DB19D" transform="translate(0,0)"/>
<path d="" fill="#212429" transform="translate(0,0)"/>
<path d="" fill="#212429" transform="translate(0,0)"/>
<path d="" fill="#212429" transform="translate(0,0)"/>
<path d="" fill="#212429" transform="translate(0,0)"/>
<path d="" fill="#212429" transform="translate(0,0)"/>
<path d="" fill="#212429" transform="translate(0,0)"/>
<path d="" fill="#0B6208" transform="translate(0,0)"/>
<path d="" fill="#9DB19D" transform="translate(0,0)"/>
<path d="" fill="#9DB19D" transform="translate(0,0)"/>
<path d="" fill="#9DB19D" transform="translate(0,0)"/>
<path d="" fill="#9DB19D" transform="translate(0,0)"/>
<path d="" fill="#9DB19D" transform="translate(0,0)"/>
<path d="" fill="#9DB19D" transform="translate(0,0)"/>
<path d="" fill="#9DB19D" transform="translate(0,0)"/>
<path d="" fill="#212429" transform="translate(0,0)"/>
<path d="" fill="#9DB19D" transform="translate(0,0)"/>
<path d="" fill="#9DB19D" transform="translate(0,0)"/>
<path d="" fill="#212429" transform="translate(0,0)"/>
<path d="" fill="#212429" transform="translate(0,0)"/>
<path d="" fill="#212429" transform="translate(0,0)"/>
<path d="" fill="#212429" transform="translate(0,0)"/>
<path d="" fill="#9DB19D" transform="translate(0,0)"/>
<path d="" fill="#212429" transform="translate(0,0)"/>
<path d="" fill="#212429" transform="translate(0,0)"/>
<path d="" fill="#9DB19D" transform="translate(0,0)"/>
<path d="" fill="#212429" transform="translate(0,0)"/>
<path d="" fill="#9DB19D" transform="translate(0,0)"/>
<path d="" fill="#212429" transform="translate(0,0)"/>
<path d="" fill="#212429" transform="translate(0,0)"/>
<path d="" fill="#9DB19D" transform="translate(0,0)"/>
<path d="" fill="#212429" transform="translate(0,0)"/>
<path d="" fill="#212429" transform="translate(0,0)"/>
<path d="" fill="#212429" transform="translate(0,0)"/>
<path d="" fill="#0B6208" transform="translate(0,0)"/>
<path d="" fill="#9DB19D" transform="translate(0,0)"/>
<path d="" fill="#212429" transform="translate(0,0)"/>
<path d="" fill="#9DB19D" transform="translate(0,0)"/>
<path d="" fill="#9DB19D" transform="translate(0,0)"/>
<path d="" fill="#212429" transform="translate(0,0)"/>
<path d="" fill="#212429" transform="translate(0,0)"/>
<path d="" fill="#212429" transform="translate(0,0)"/>
<path d="" fill="#9DB19D" transform="translate(0,0)"/>
<path d="" fill="#212429" transform="translate(0,0)"/>
<path d="" fill="#212429" transform="translate(0,0)"/>
<path d="" fill="#212429" transform="translate(0,0)"/>
<path d="" fill="#212429" transform="translate(0,0)"/>
<path d="" fill="#212429" transform="translate(0,0)"/>
<path d="" fill="#212429" transform="translate(0,0)"/>
<path d="" fill="#212429" transform="translate(0,0)"/>
<path d="" fill="#212429" transform="translate(0,0)"/>
<path d="" fill="#9DB19D" transform="translate(0,0)"/>
<path d="" fill="#9DB19D" transform="translate(0,0)"/>
<path d="" fill="#9DB19D" transform="translate(0,0)"/>
<path d="" fill="#9DB19D" transform="translate(0,0)"/>
<path d="" fill="#0B6208" transform="translate(0,0)"/>
<path d="" fill="#212429" transform="translate(0,0)"/>
<path d="" fill="#212429" transform="translate(0,0)"/>
<path d="" fill="#9DB19D" transform="translate(0,0)"/>
<path d="" fill="#212429" transform="translate(0,0)"/>
<path d="" fill="#212429" transform="translate(0,0)"/>
<path d="" fill="#0B6208" transform="translate(0,0)"/>
</svg>
